<svg width="266" height="77" viewBox="0 0 266 77" fill="none" xmlns="http://www.w3.org/2000/svg">
<path d="M266 40L256 34.2265L256 45.7735L266 40ZM40 41L257 41L257 39L40 39L40 41Z" fill="#264F70"/>
<line x1="40.5" y1="34" x2="40.5" y2="46" stroke="#264F70"/>
<line x1="198.5" y1="34" x2="198.5" y2="40" stroke="#264F70"/>
<line x1="230.5" y1="34" x2="230.5" y2="46" stroke="#264F70"/>
<line x1="135.5" y1="40" x2="135.5" y2="46" stroke="#264F70"/>
<path d="M113.42 57.293C113.314 58.1953 112.98 58.8926 112.418 59.3848C111.859 59.873 111.115 60.1172 110.186 60.1172C109.178 60.1172 108.369 59.7559 107.76 59.0332C107.154 58.3105 106.852 57.3438 106.852 56.1328V55.3125C106.852 54.5195 106.992 53.8223 107.273 53.2207C107.559 52.6191 107.961 52.1582 108.48 51.8379C109 51.5137 109.602 51.3516 110.285 51.3516C111.191 51.3516 111.918 51.6055 112.465 52.1133C113.012 52.6172 113.33 53.3164 113.42 54.2109H112.289C112.191 53.5312 111.979 53.0391 111.65 52.7344C111.326 52.4297 110.871 52.2773 110.285 52.2773C109.566 52.2773 109.002 52.543 108.592 53.0742C108.186 53.6055 107.982 54.3613 107.982 55.3418V56.168C107.982 57.0938 108.176 57.8301 108.562 58.377C108.949 58.9238 109.49 59.1973 110.186 59.1973C110.811 59.1973 111.289 59.0566 111.621 58.7754C111.957 58.4902 112.18 57.9961 112.289 57.293H113.42ZM119.205 60C119.143 59.875 119.092 59.6523 119.053 59.332C118.549 59.8555 117.947 60.1172 117.248 60.1172C116.623 60.1172 116.109 59.9414 115.707 59.5898C115.309 59.2344 115.109 58.7852 115.109 58.2422C115.109 57.582 115.359 57.0703 115.859 56.707C116.363 56.3398 117.07 56.1562 117.98 56.1562H119.035V55.6582C119.035 55.2793 118.922 54.9785 118.695 54.7559C118.469 54.5293 118.135 54.416 117.693 54.416C117.307 54.416 116.982 54.5137 116.721 54.709C116.459 54.9043 116.328 55.1406 116.328 55.418H115.238C115.238 55.1016 115.35 54.7969 115.572 54.5039C115.799 54.207 116.104 53.9727 116.486 53.8008C116.873 53.6289 117.297 53.543 117.758 53.543C118.488 53.543 119.061 53.7266 119.475 54.0938C119.889 54.457 120.104 54.959 120.119 55.5996V58.5176C120.119 59.0996 120.193 59.5625 120.342 59.9062V60H119.205ZM117.406 59.1738C117.746 59.1738 118.068 59.0859 118.373 58.9102C118.678 58.7344 118.898 58.5059 119.035 58.2246V56.9238H118.186C116.857 56.9238 116.193 57.3125 116.193 58.0898C116.193 58.4297 116.307 58.6953 116.533 58.8867C116.76 59.0781 117.051 59.1738 117.406 59.1738ZM127.674 56.9004C127.674 57.8652 127.453 58.6426 127.012 59.2324C126.57 59.8223 125.973 60.1172 125.219 60.1172C124.449 60.1172 123.844 59.873 123.402 59.3848V62.4375H122.318V53.6602H123.309L123.361 54.3633C123.803 53.8164 124.416 53.543 125.201 53.543C125.963 53.543 126.564 53.8301 127.006 54.4043C127.451 54.9785 127.674 55.7773 127.674 56.8008V56.9004ZM126.59 56.7773C126.59 56.0625 126.438 55.498 126.133 55.084C125.828 54.6699 125.41 54.4629 124.879 54.4629C124.223 54.4629 123.73 54.7539 123.402 55.3359V58.3652C123.727 58.9434 124.223 59.2324 124.891 59.2324C125.41 59.2324 125.822 59.0273 126.127 58.6172C126.436 58.2031 126.59 57.5898 126.59 56.7773ZM131.027 52.125V53.6602H132.211V54.498H131.027V58.4297C131.027 58.6836 131.08 58.875 131.186 59.0039C131.291 59.1289 131.471 59.1914 131.725 59.1914C131.85 59.1914 132.021 59.168 132.24 59.1211V60C131.955 60.0781 131.678 60.1172 131.408 60.1172C130.924 60.1172 130.559 59.9707 130.312 59.6777C130.066 59.3848 129.943 58.9688 129.943 58.4297V54.498H128.789V53.6602H129.943V52.125H131.027ZM137.896 59.373C137.475 59.8691 136.855 60.1172 136.039 60.1172C135.363 60.1172 134.848 59.9219 134.492 59.5312C134.141 59.1367 133.963 58.5547 133.959 57.7852V53.6602H135.043V57.7559C135.043 58.7168 135.434 59.1973 136.215 59.1973C137.043 59.1973 137.594 58.8887 137.867 58.2715V53.6602H138.951V60H137.92L137.896 59.373ZM144.168 54.6328C144.004 54.6055 143.826 54.5918 143.635 54.5918C142.924 54.5918 142.441 54.8945 142.188 55.5V60H141.104V53.6602H142.158L142.176 54.3926C142.531 53.8262 143.035 53.543 143.688 53.543C143.898 53.543 144.059 53.5703 144.168 53.625V54.6328ZM148.184 60.1172C147.324 60.1172 146.625 59.8359 146.086 59.2734C145.547 58.707 145.277 57.9512 145.277 57.0059V56.8066C145.277 56.1777 145.396 55.6172 145.635 55.125C145.877 54.6289 146.213 54.2422 146.643 53.9648C147.076 53.6836 147.545 53.543 148.049 53.543C148.873 53.543 149.514 53.8145 149.971 54.3574C150.428 54.9004 150.656 55.6777 150.656 56.6895V57.1406H146.361C146.377 57.7656 146.559 58.2715 146.906 58.6582C147.258 59.041 147.703 59.2324 148.242 59.2324C148.625 59.2324 148.949 59.1543 149.215 58.998C149.48 58.8418 149.713 58.6348 149.912 58.377L150.574 58.8926C150.043 59.709 149.246 60.1172 148.184 60.1172ZM148.049 54.4336C147.611 54.4336 147.244 54.5938 146.947 54.9141C146.65 55.2305 146.467 55.6758 146.396 56.25H149.572V56.168C149.541 55.6172 149.393 55.1914 149.127 54.8906C148.861 54.5859 148.502 54.4336 148.049 54.4336ZM152.152 56.7773C152.152 55.8047 152.383 55.0234 152.844 54.4336C153.305 53.8398 153.908 53.543 154.654 53.543C155.396 53.543 155.984 53.7969 156.418 54.3047V51H157.502V60H156.506L156.453 59.3203C156.02 59.8516 155.416 60.1172 154.643 60.1172C153.908 60.1172 153.309 59.8164 152.844 59.2148C152.383 58.6133 152.152 57.8281 152.152 56.8594V56.7773ZM153.236 56.9004C153.236 57.6191 153.385 58.1816 153.682 58.5879C153.979 58.9941 154.389 59.1973 154.912 59.1973C155.6 59.1973 156.102 58.8887 156.418 58.2715V55.3594C156.094 54.7617 155.596 54.4629 154.924 54.4629C154.393 54.4629 153.979 54.668 153.682 55.0781C153.385 55.4883 153.236 56.0957 153.236 56.9004ZM117.551 67.6602L117.58 68.3633C118.045 67.8164 118.672 67.543 119.461 67.543C120.348 67.543 120.951 67.8828 121.271 68.5625C121.482 68.2578 121.756 68.0117 122.092 67.8242C122.432 67.6367 122.832 67.543 123.293 67.543C124.684 67.543 125.391 68.2793 125.414 69.752V74H124.33V69.8164C124.33 69.3633 124.227 69.0254 124.02 68.8027C123.812 68.5762 123.465 68.4629 122.977 68.4629C122.574 68.4629 122.24 68.584 121.975 68.8262C121.709 69.0645 121.555 69.3867 121.512 69.793V74H120.422V69.8457C120.422 68.9238 119.971 68.4629 119.068 68.4629C118.357 68.4629 117.871 68.7656 117.609 69.3711V74H116.525V67.6602H117.551ZM130.186 74.1172C129.326 74.1172 128.627 73.8359 128.088 73.2734C127.549 72.707 127.279 71.9512 127.279 71.0059V70.8066C127.279 70.1777 127.398 69.6172 127.637 69.125C127.879 68.6289 128.215 68.2422 128.645 67.9648C129.078 67.6836 129.547 67.543 130.051 67.543C130.875 67.543 131.516 67.8145 131.973 68.3574C132.43 68.9004 132.658 69.6777 132.658 70.6895V71.1406H128.363C128.379 71.7656 128.561 72.2715 128.908 72.6582C129.26 73.041 129.705 73.2324 130.244 73.2324C130.627 73.2324 130.951 73.1543 131.217 72.998C131.482 72.8418 131.715 72.6348 131.914 72.377L132.576 72.8926C132.045 73.709 131.248 74.1172 130.186 74.1172ZM130.051 68.4336C129.613 68.4336 129.246 68.5938 128.949 68.9141C128.652 69.2305 128.469 69.6758 128.398 70.25H131.574V70.168C131.543 69.6172 131.395 69.1914 131.129 68.8906C130.863 68.5859 130.504 68.4336 130.051 68.4336ZM135.889 66.125V67.6602H137.072V68.498H135.889V72.4297C135.889 72.6836 135.941 72.875 136.047 73.0039C136.152 73.1289 136.332 73.1914 136.586 73.1914C136.711 73.1914 136.883 73.168 137.102 73.1211V74C136.816 74.0781 136.539 74.1172 136.27 74.1172C135.785 74.1172 135.42 73.9707 135.174 73.6777C134.928 73.3848 134.805 72.9688 134.805 72.4297V68.498H133.65V67.6602H134.805V66.125H135.889ZM141.908 68.6328C141.744 68.6055 141.566 68.5918 141.375 68.5918C140.664 68.5918 140.182 68.8945 139.928 69.5V74H138.844V67.6602H139.898L139.916 68.3926C140.271 67.8262 140.775 67.543 141.428 67.543C141.639 67.543 141.799 67.5703 141.908 67.625V68.6328ZM144.588 74H143.504V67.6602H144.588V74ZM143.416 65.9785C143.416 65.8027 143.469 65.6543 143.574 65.5332C143.684 65.4121 143.844 65.3516 144.055 65.3516C144.266 65.3516 144.426 65.4121 144.535 65.5332C144.645 65.6543 144.699 65.8027 144.699 65.9785C144.699 66.1543 144.645 66.3008 144.535 66.418C144.426 66.5352 144.266 66.5938 144.055 66.5938C143.844 66.5938 143.684 66.5352 143.574 66.418C143.469 66.3008 143.416 66.1543 143.416 65.9785ZM149.371 73.2324C149.758 73.2324 150.096 73.1152 150.385 72.8809C150.674 72.6465 150.834 72.3535 150.865 72.002H151.891C151.871 72.3652 151.746 72.7109 151.516 73.0391C151.285 73.3672 150.977 73.6289 150.59 73.8242C150.207 74.0195 149.801 74.1172 149.371 74.1172C148.508 74.1172 147.82 73.8301 147.309 73.2559C146.801 72.6777 146.547 71.8887 146.547 70.8887V70.707C146.547 70.0898 146.66 69.541 146.887 69.0605C147.113 68.5801 147.438 68.207 147.859 67.9414C148.285 67.6758 148.787 67.543 149.365 67.543C150.076 67.543 150.666 67.7559 151.135 68.1816C151.607 68.6074 151.859 69.1602 151.891 69.8398H150.865C150.834 69.4297 150.678 69.0938 150.396 68.832C150.119 68.5664 149.775 68.4336 149.365 68.4336C148.814 68.4336 148.387 68.6328 148.082 69.0312C147.781 69.4258 147.631 69.998 147.631 70.748V70.9531C147.631 71.6836 147.781 72.2461 148.082 72.6406C148.383 73.0352 148.812 73.2324 149.371 73.2324Z" fill="#264F70"/>
<path d="M203.455 51.4688V57.2695C203.451 58.0742 203.197 58.7324 202.693 59.2441C202.193 59.7559 201.514 60.043 200.654 60.1055L200.355 60.1172C199.422 60.1172 198.678 59.8652 198.123 59.3613C197.568 58.8574 197.287 58.1641 197.279 57.2812V51.4688H198.393V57.2461C198.393 57.8633 198.562 58.3438 198.902 58.6875C199.242 59.0273 199.727 59.1973 200.355 59.1973C200.992 59.1973 201.479 59.0273 201.814 58.6875C202.154 58.3477 202.324 57.8691 202.324 57.252V51.4688H203.455ZM206.586 53.6602L206.621 54.457C207.105 53.8477 207.738 53.543 208.52 53.543C209.859 53.543 210.535 54.2988 210.547 55.8105V60H209.463V55.8047C209.459 55.3477 209.354 55.0098 209.146 54.791C208.943 54.5723 208.625 54.4629 208.191 54.4629C207.84 54.4629 207.531 54.5566 207.266 54.7441C207 54.9316 206.793 55.1777 206.645 55.4824V60H205.561V53.6602H206.586ZM215.225 59.2324C215.611 59.2324 215.949 59.1152 216.238 58.8809C216.527 58.6465 216.688 58.3535 216.719 58.002H217.744C217.725 58.3652 217.6 58.7109 217.369 59.0391C217.139 59.3672 216.83 59.6289 216.443 59.8242C216.061 60.0195 215.654 60.1172 215.225 60.1172C214.361 60.1172 213.674 59.8301 213.162 59.2559C212.654 58.6777 212.4 57.8887 212.4 56.8887V56.707C212.4 56.0898 212.514 55.541 212.74 55.0605C212.967 54.5801 213.291 54.207 213.713 53.9414C214.139 53.6758 214.641 53.543 215.219 53.543C215.93 53.543 216.52 53.7559 216.988 54.1816C217.461 54.6074 217.713 55.1602 217.744 55.8398H216.719C216.688 55.4297 216.531 55.0938 216.25 54.832C215.973 54.5664 215.629 54.4336 215.219 54.4336C214.668 54.4336 214.24 54.6328 213.936 55.0312C213.635 55.4258 213.484 55.998 213.484 56.748V56.9531C213.484 57.6836 213.635 58.2461 213.936 58.6406C214.236 59.0352 214.666 59.2324 215.225 59.2324ZM223.377 60C223.314 59.875 223.264 59.6523 223.225 59.332C222.721 59.8555 222.119 60.1172 221.42 60.1172C220.795 60.1172 220.281 59.9414 219.879 59.5898C219.48 59.2344 219.281 58.7852 219.281 58.2422C219.281 57.582 219.531 57.0703 220.031 56.707C220.535 56.3398 221.242 56.1562 222.152 56.1562H223.207V55.6582C223.207 55.2793 223.094 54.9785 222.867 54.7559C222.641 54.5293 222.307 54.416 221.865 54.416C221.479 54.416 221.154 54.5137 220.893 54.709C220.631 54.9043 220.5 55.1406 220.5 55.418H219.41C219.41 55.1016 219.521 54.7969 219.744 54.5039C219.971 54.207 220.275 53.9727 220.658 53.8008C221.045 53.6289 221.469 53.543 221.93 53.543C222.66 53.543 223.232 53.7266 223.646 54.0938C224.061 54.457 224.275 54.959 224.291 55.5996V58.5176C224.291 59.0996 224.365 59.5625 224.514 59.9062V60H223.377ZM221.578 59.1738C221.918 59.1738 222.24 59.0859 222.545 58.9102C222.85 58.7344 223.07 58.5059 223.207 58.2246V56.9238H222.357C221.029 56.9238 220.365 57.3125 220.365 58.0898C220.365 58.4297 220.479 58.6953 220.705 58.8867C220.932 59.0781 221.223 59.1738 221.578 59.1738ZM231.846 56.9004C231.846 57.8652 231.625 58.6426 231.184 59.2324C230.742 59.8223 230.145 60.1172 229.391 60.1172C228.621 60.1172 228.016 59.873 227.574 59.3848V62.4375H226.49V53.6602H227.48L227.533 54.3633C227.975 53.8164 228.588 53.543 229.373 53.543C230.135 53.543 230.736 53.8301 231.178 54.4043C231.623 54.9785 231.846 55.7773 231.846 56.8008V56.9004ZM230.762 56.7773C230.762 56.0625 230.609 55.498 230.305 55.084C230 54.6699 229.582 54.4629 229.051 54.4629C228.395 54.4629 227.902 54.7539 227.574 55.3359V58.3652C227.898 58.9434 228.395 59.2324 229.062 59.2324C229.582 59.2324 229.994 59.0273 230.299 58.6172C230.607 58.2031 230.762 57.5898 230.762 56.7773ZM235.199 52.125V53.6602H236.383V54.498H235.199V58.4297C235.199 58.6836 235.252 58.875 235.357 59.0039C235.463 59.1289 235.643 59.1914 235.896 59.1914C236.021 59.1914 236.193 59.168 236.412 59.1211V60C236.127 60.0781 235.85 60.1172 235.58 60.1172C235.096 60.1172 234.73 59.9707 234.484 59.6777C234.238 59.3848 234.115 58.9688 234.115 58.4297V54.498H232.961V53.6602H234.115V52.125H235.199ZM242.068 59.373C241.646 59.8691 241.027 60.1172 240.211 60.1172C239.535 60.1172 239.02 59.9219 238.664 59.5312C238.312 59.1367 238.135 58.5547 238.131 57.7852V53.6602H239.215V57.7559C239.215 58.7168 239.605 59.1973 240.387 59.1973C241.215 59.1973 241.766 58.8887 242.039 58.2715V53.6602H243.123V60H242.092L242.068 59.373ZM248.34 54.6328C248.176 54.6055 247.998 54.5918 247.807 54.5918C247.096 54.5918 246.613 54.8945 246.359 55.5V60H245.275V53.6602H246.33L246.348 54.3926C246.703 53.8262 247.207 53.543 247.859 53.543C248.07 53.543 248.23 53.5703 248.34 53.625V54.6328ZM252.355 60.1172C251.496 60.1172 250.797 59.8359 250.258 59.2734C249.719 58.707 249.449 57.9512 249.449 57.0059V56.8066C249.449 56.1777 249.568 55.6172 249.807 55.125C250.049 54.6289 250.385 54.2422 250.814 53.9648C251.248 53.6836 251.717 53.543 252.221 53.543C253.045 53.543 253.686 53.8145 254.143 54.3574C254.6 54.9004 254.828 55.6777 254.828 56.6895V57.1406H250.533C250.549 57.7656 250.73 58.2715 251.078 58.6582C251.43 59.041 251.875 59.2324 252.414 59.2324C252.797 59.2324 253.121 59.1543 253.387 58.998C253.652 58.8418 253.885 58.6348 254.084 58.377L254.746 58.8926C254.215 59.709 253.418 60.1172 252.355 60.1172ZM252.221 54.4336C251.783 54.4336 251.416 54.5938 251.119 54.9141C250.822 55.2305 250.639 55.6758 250.568 56.25H253.744V56.168C253.713 55.6172 253.564 55.1914 253.299 54.8906C253.033 54.5859 252.674 54.4336 252.221 54.4336ZM256.324 56.7773C256.324 55.8047 256.555 55.0234 257.016 54.4336C257.477 53.8398 258.08 53.543 258.826 53.543C259.568 53.543 260.156 53.7969 260.59 54.3047V51H261.674V60H260.678L260.625 59.3203C260.191 59.8516 259.588 60.1172 258.814 60.1172C258.08 60.1172 257.48 59.8164 257.016 59.2148C256.555 58.6133 256.324 57.8281 256.324 56.8594V56.7773ZM257.408 56.9004C257.408 57.6191 257.557 58.1816 257.854 58.5879C258.15 58.9941 258.561 59.1973 259.084 59.1973C259.771 59.1973 260.273 58.8887 260.59 58.2715V55.3594C260.266 54.7617 259.768 54.4629 259.096 54.4629C258.564 54.4629 258.15 54.668 257.854 55.0781C257.557 55.4883 257.408 56.0957 257.408 56.9004ZM213.051 67.6602L213.08 68.3633C213.545 67.8164 214.172 67.543 214.961 67.543C215.848 67.543 216.451 67.8828 216.771 68.5625C216.982 68.2578 217.256 68.0117 217.592 67.8242C217.932 67.6367 218.332 67.543 218.793 67.543C220.184 67.543 220.891 68.2793 220.914 69.752V74H219.83V69.8164C219.83 69.3633 219.727 69.0254 219.52 68.8027C219.312 68.5762 218.965 68.4629 218.477 68.4629C218.074 68.4629 217.74 68.584 217.475 68.8262C217.209 69.0645 217.055 69.3867 217.012 69.793V74H215.922V69.8457C215.922 68.9238 215.471 68.4629 214.568 68.4629C213.857 68.4629 213.371 68.7656 213.109 69.3711V74H212.025V67.6602H213.051ZM225.686 74.1172C224.826 74.1172 224.127 73.8359 223.588 73.2734C223.049 72.707 222.779 71.9512 222.779 71.0059V70.8066C222.779 70.1777 222.898 69.6172 223.137 69.125C223.379 68.6289 223.715 68.2422 224.145 67.9648C224.578 67.6836 225.047 67.543 225.551 67.543C226.375 67.543 227.016 67.8145 227.473 68.3574C227.93 68.9004 228.158 69.6777 228.158 70.6895V71.1406H223.863C223.879 71.7656 224.061 72.2715 224.408 72.6582C224.76 73.041 225.205 73.2324 225.744 73.2324C226.127 73.2324 226.451 73.1543 226.717 72.998C226.982 72.8418 227.215 72.6348 227.414 72.377L228.076 72.8926C227.545 73.709 226.748 74.1172 225.686 74.1172ZM225.551 68.4336C225.113 68.4336 224.746 68.5938 224.449 68.9141C224.152 69.2305 223.969 69.6758 223.898 70.25H227.074V70.168C227.043 69.6172 226.895 69.1914 226.629 68.8906C226.363 68.5859 226.004 68.4336 225.551 68.4336ZM231.389 66.125V67.6602H232.572V68.498H231.389V72.4297C231.389 72.6836 231.441 72.875 231.547 73.0039C231.652 73.1289 231.832 73.1914 232.086 73.1914C232.211 73.1914 232.383 73.168 232.602 73.1211V74C232.316 74.0781 232.039 74.1172 231.77 74.1172C231.285 74.1172 230.92 73.9707 230.674 73.6777C230.428 73.3848 230.305 72.9688 230.305 72.4297V68.498H229.15V67.6602H230.305V66.125H231.389ZM237.408 68.6328C237.244 68.6055 237.066 68.5918 236.875 68.5918C236.164 68.5918 235.682 68.8945 235.428 69.5V74H234.344V67.6602H235.398L235.416 68.3926C235.771 67.8262 236.275 67.543 236.928 67.543C237.139 67.543 237.299 67.5703 237.408 67.625V68.6328ZM240.088 74H239.004V67.6602H240.088V74ZM238.916 65.9785C238.916 65.8027 238.969 65.6543 239.074 65.5332C239.184 65.4121 239.344 65.3516 239.555 65.3516C239.766 65.3516 239.926 65.4121 240.035 65.5332C240.145 65.6543 240.199 65.8027 240.199 65.9785C240.199 66.1543 240.145 66.3008 240.035 66.418C239.926 66.5352 239.766 66.5938 239.555 66.5938C239.344 66.5938 239.184 66.5352 239.074 66.418C238.969 66.3008 238.916 66.1543 238.916 65.9785ZM244.871 73.2324C245.258 73.2324 245.596 73.1152 245.885 72.8809C246.174 72.6465 246.334 72.3535 246.365 72.002H247.391C247.371 72.3652 247.246 72.7109 247.016 73.0391C246.785 73.3672 246.477 73.6289 246.09 73.8242C245.707 74.0195 245.301 74.1172 244.871 74.1172C244.008 74.1172 243.32 73.8301 242.809 73.2559C242.301 72.6777 242.047 71.8887 242.047 70.8887V70.707C242.047 70.0898 242.16 69.541 242.387 69.0605C242.613 68.5801 242.938 68.207 243.359 67.9414C243.785 67.6758 244.287 67.543 244.865 67.543C245.576 67.543 246.166 67.7559 246.635 68.1816C247.107 68.6074 247.359 69.1602 247.391 69.8398H246.365C246.334 69.4297 246.178 69.0938 245.896 68.832C245.619 68.5664 245.275 68.4336 244.865 68.4336C244.314 68.4336 243.887 68.6328 243.582 69.0312C243.281 69.4258 243.131 69.998 243.131 70.748V70.9531C243.131 71.6836 243.281 72.2461 243.582 72.6406C243.883 73.0352 244.312 73.2324 244.871 73.2324Z" fill="#264F70"/>
<path d="M7.94727 51.4688V57.2695C7.94336 58.0742 7.68945 58.7324 7.18555 59.2441C6.68555 59.7559 6.00586 60.043 5.14648 60.1055L4.84766 60.1172C3.91406 60.1172 3.16992 59.8652 2.61523 59.3613C2.06055 58.8574 1.7793 58.1641 1.77148 57.2812V51.4688H2.88477V57.2461C2.88477 57.8633 3.05469 58.3438 3.39453 58.6875C3.73438 59.0273 4.21875 59.1973 4.84766 59.1973C5.48438 59.1973 5.9707 59.0273 6.30664 58.6875C6.64648 58.3477 6.81641 57.8691 6.81641 57.252V51.4688H7.94727ZM13.7441 58.3184C13.7441 58.0254 13.6328 57.7988 13.4102 57.6387C13.1914 57.4746 12.8066 57.334 12.2559 57.2168C11.709 57.0996 11.2734 56.959 10.9492 56.7949C10.6289 56.6309 10.3906 56.4355 10.2344 56.209C10.082 55.9824 10.0059 55.7129 10.0059 55.4004C10.0059 54.8809 10.2246 54.4414 10.6621 54.082C11.1035 53.7227 11.666 53.543 12.3496 53.543C13.0684 53.543 13.6504 53.7285 14.0957 54.0996C14.5449 54.4707 14.7695 54.9453 14.7695 55.5234H13.6797C13.6797 55.2266 13.5527 54.9707 13.2988 54.7559C13.0488 54.541 12.7324 54.4336 12.3496 54.4336C11.9551 54.4336 11.6465 54.5195 11.4238 54.6914C11.2012 54.8633 11.0898 55.0879 11.0898 55.3652C11.0898 55.627 11.1934 55.8242 11.4004 55.957C11.6074 56.0898 11.9805 56.2168 12.5195 56.3379C13.0625 56.459 13.502 56.6035 13.8379 56.7715C14.1738 56.9395 14.4219 57.1426 14.582 57.3809C14.7461 57.6152 14.8281 57.9023 14.8281 58.2422C14.8281 58.8086 14.6016 59.2637 14.1484 59.6074C13.6953 59.9473 13.1074 60.1172 12.3848 60.1172C11.877 60.1172 11.4277 60.0273 11.0371 59.8477C10.6465 59.668 10.3398 59.418 10.1172 59.0977C9.89844 58.7734 9.78906 58.4238 9.78906 58.0488H10.873C10.8926 58.4121 11.0371 58.7012 11.3066 58.916C11.5801 59.127 11.9395 59.2324 12.3848 59.2324C12.7949 59.2324 13.123 59.1504 13.3691 58.9863C13.6191 58.8184 13.7441 58.5957 13.7441 58.3184ZM19.3711 60.1172C18.5117 60.1172 17.8125 59.8359 17.2734 59.2734C16.7344 58.707 16.4648 57.9512 16.4648 57.0059V56.8066C16.4648 56.1777 16.584 55.6172 16.8223 55.125C17.0645 54.6289 17.4004 54.2422 17.8301 53.9648C18.2637 53.6836 18.7324 53.543 19.2363 53.543C20.0605 53.543 20.7012 53.8145 21.1582 54.3574C21.6152 54.9004 21.8438 55.6777 21.8438 56.6895V57.1406H17.5488C17.5645 57.7656 17.7461 58.2715 18.0938 58.6582C18.4453 59.041 18.8906 59.2324 19.4297 59.2324C19.8125 59.2324 20.1367 59.1543 20.4023 58.998C20.668 58.8418 20.9004 58.6348 21.0996 58.377L21.7617 58.8926C21.2305 59.709 20.4336 60.1172 19.3711 60.1172ZM19.2363 54.4336C18.7988 54.4336 18.4316 54.5938 18.1348 54.9141C17.8379 55.2305 17.6543 55.6758 17.584 56.25H20.7598V56.168C20.7285 55.6172 20.5801 55.1914 20.3145 54.8906C20.0488 54.5859 19.6895 54.4336 19.2363 54.4336ZM26.668 54.6328C26.5039 54.6055 26.3262 54.5918 26.1348 54.5918C25.4238 54.5918 24.9414 54.8945 24.6875 55.5V60H23.6035V53.6602H24.6582L24.6758 54.3926C25.0312 53.8262 25.5352 53.543 26.1875 53.543C26.3984 53.543 26.5586 53.5703 26.668 53.625V54.6328ZM34.2773 60.1172C33.418 60.1172 32.7188 59.8359 32.1797 59.2734C31.6406 58.707 31.3711 57.9512 31.3711 57.0059V56.8066C31.3711 56.1777 31.4902 55.6172 31.7285 55.125C31.9707 54.6289 32.3066 54.2422 32.7363 53.9648C33.1699 53.6836 33.6387 53.543 34.1426 53.543C34.9668 53.543 35.6074 53.8145 36.0645 54.3574C36.5215 54.9004 36.75 55.6777 36.75 56.6895V57.1406H32.4551C32.4707 57.7656 32.6523 58.2715 33 58.6582C33.3516 59.041 33.7969 59.2324 34.3359 59.2324C34.7188 59.2324 35.043 59.1543 35.3086 58.998C35.5742 58.8418 35.8066 58.6348 36.0059 58.377L36.668 58.8926C36.1367 59.709 35.3398 60.1172 34.2773 60.1172ZM34.1426 54.4336C33.7051 54.4336 33.3379 54.5938 33.041 54.9141C32.7441 55.2305 32.5605 55.6758 32.4902 56.25H35.666V56.168C35.6348 55.6172 35.4863 55.1914 35.2207 54.8906C34.9551 54.5859 34.5957 54.4336 34.1426 54.4336ZM40.6367 55.9746L42.043 53.6602H43.3086L41.2344 56.7949L43.373 60H42.1191L40.6543 57.627L39.1895 60H37.9297L40.0684 56.7949L37.9941 53.6602H39.248L40.6367 55.9746ZM50.3184 56.9004C50.3184 57.8652 50.0977 58.6426 49.6562 59.2324C49.2148 59.8223 48.6172 60.1172 47.8633 60.1172C47.0938 60.1172 46.4883 59.873 46.0469 59.3848V62.4375H44.9629V53.6602H45.9531L46.0059 54.3633C46.4473 53.8164 47.0605 53.543 47.8457 53.543C48.6074 53.543 49.209 53.8301 49.6504 54.4043C50.0957 54.9785 50.3184 55.7773 50.3184 56.8008V56.9004ZM49.2344 56.7773C49.2344 56.0625 49.082 55.498 48.7773 55.084C48.4727 54.6699 48.0547 54.4629 47.5234 54.4629C46.8672 54.4629 46.375 54.7539 46.0469 55.3359V58.3652C46.3711 58.9434 46.8672 59.2324 47.5352 59.2324C48.0547 59.2324 48.4668 59.0273 48.7715 58.6172C49.0801 58.2031 49.2344 57.5898 49.2344 56.7773ZM51.9141 56.7715C51.9141 56.1504 52.0352 55.5918 52.2773 55.0957C52.5234 54.5996 52.8633 54.2168 53.2969 53.9473C53.7344 53.6777 54.2324 53.543 54.791 53.543C55.6543 53.543 56.3516 53.8418 56.8828 54.4395C57.418 55.0371 57.6855 55.832 57.6855 56.8242V56.9004C57.6855 57.5176 57.5664 58.0723 57.3281 58.5645C57.0938 59.0527 56.7559 59.4336 56.3145 59.707C55.877 59.9805 55.373 60.1172 54.8027 60.1172C53.9434 60.1172 53.2461 59.8184 52.7109 59.2207C52.1797 58.623 51.9141 57.832 51.9141 56.8477V56.7715ZM53.0039 56.9004C53.0039 57.6035 53.166 58.168 53.4902 58.5938C53.8184 59.0195 54.2559 59.2324 54.8027 59.2324C55.3535 59.2324 55.791 59.0176 56.1152 58.5879C56.4395 58.1543 56.6016 57.5488 56.6016 56.7715C56.6016 56.0762 56.4355 55.5137 56.1035 55.084C55.7754 54.6504 55.3379 54.4336 54.791 54.4336C54.2559 54.4336 53.8242 54.6465 53.4961 55.0723C53.168 55.498 53.0039 56.1074 53.0039 56.9004ZM63.2363 58.3184C63.2363 58.0254 63.125 57.7988 62.9023 57.6387C62.6836 57.4746 62.2988 57.334 61.748 57.2168C61.2012 57.0996 60.7656 56.959 60.4414 56.7949C60.1211 56.6309 59.8828 56.4355 59.7266 56.209C59.5742 55.9824 59.498 55.7129 59.498 55.4004C59.498 54.8809 59.7168 54.4414 60.1543 54.082C60.5957 53.7227 61.1582 53.543 61.8418 53.543C62.5605 53.543 63.1426 53.7285 63.5879 54.0996C64.0371 54.4707 64.2617 54.9453 64.2617 55.5234H63.1719C63.1719 55.2266 63.0449 54.9707 62.791 54.7559C62.541 54.541 62.2246 54.4336 61.8418 54.4336C61.4473 54.4336 61.1387 54.5195 60.916 54.6914C60.6934 54.8633 60.582 55.0879 60.582 55.3652C60.582 55.627 60.6855 55.8242 60.8926 55.957C61.0996 56.0898 61.4727 56.2168 62.0117 56.3379C62.5547 56.459 62.9941 56.6035 63.3301 56.7715C63.666 56.9395 63.9141 57.1426 64.0742 57.3809C64.2383 57.6152 64.3203 57.9023 64.3203 58.2422C64.3203 58.8086 64.0938 59.2637 63.6406 59.6074C63.1875 59.9473 62.5996 60.1172 61.877 60.1172C61.3691 60.1172 60.9199 60.0273 60.5293 59.8477C60.1387 59.668 59.832 59.418 59.6094 59.0977C59.3906 58.7734 59.2812 58.4238 59.2812 58.0488H60.3652C60.3848 58.4121 60.5293 58.7012 60.7988 58.916C61.0723 59.127 61.4316 59.2324 61.877 59.2324C62.2871 59.2324 62.6152 59.1504 62.8613 58.9863C63.1113 58.8184 63.2363 58.5957 63.2363 58.3184ZM68.8633 60.1172C68.0039 60.1172 67.3047 59.8359 66.7656 59.2734C66.2266 58.707 65.957 57.9512 65.957 57.0059V56.8066C65.957 56.1777 66.0762 55.6172 66.3145 55.125C66.5566 54.6289 66.8926 54.2422 67.3223 53.9648C67.7559 53.6836 68.2246 53.543 68.7285 53.543C69.5527 53.543 70.1934 53.8145 70.6504 54.3574C71.1074 54.9004 71.3359 55.6777 71.3359 56.6895V57.1406H67.041C67.0566 57.7656 67.2383 58.2715 67.5859 58.6582C67.9375 59.041 68.3828 59.2324 68.9219 59.2324C69.3047 59.2324 69.6289 59.1543 69.8945 58.998C70.1602 58.8418 70.3926 58.6348 70.5918 58.377L71.2539 58.8926C70.7227 59.709 69.9258 60.1172 68.8633 60.1172ZM68.7285 54.4336C68.291 54.4336 67.9238 54.5938 67.627 54.9141C67.3301 55.2305 67.1465 55.6758 67.0762 56.25H70.252V56.168C70.2207 55.6172 70.0723 55.1914 69.8066 54.8906C69.541 54.5859 69.1816 54.4336 68.7285 54.4336ZM72.832 56.7773C72.832 55.8047 73.0625 55.0234 73.5234 54.4336C73.9844 53.8398 74.5879 53.543 75.334 53.543C76.0762 53.543 76.6641 53.7969 77.0977 54.3047V51H78.1816V60H77.1855L77.1328 59.3203C76.6992 59.8516 76.0957 60.1172 75.3223 60.1172C74.5879 60.1172 73.9883 59.8164 73.5234 59.2148C73.0625 58.6133 72.832 57.8281 72.832 56.8594V56.7773ZM73.916 56.9004C73.916 57.6191 74.0645 58.1816 74.3613 58.5879C74.6582 58.9941 75.0684 59.1973 75.5918 59.1973C76.2793 59.1973 76.7812 58.8887 77.0977 58.2715V55.3594C76.7734 54.7617 76.2754 54.4629 75.6035 54.4629C75.0723 54.4629 74.6582 54.668 74.3613 55.0781C74.0645 55.4883 73.916 56.0957 73.916 56.9004ZM2.55859 66.125V67.6602H3.74219V68.498H2.55859V72.4297C2.55859 72.6836 2.61133 72.875 2.7168 73.0039C2.82227 73.1289 3.00195 73.1914 3.25586 73.1914C3.38086 73.1914 3.55273 73.168 3.77148 73.1211V74C3.48633 74.0781 3.20898 74.1172 2.93945 74.1172C2.45508 74.1172 2.08984 73.9707 1.84375 73.6777C1.59766 73.3848 1.47461 72.9688 1.47461 72.4297V68.498H0.320312V67.6602H1.47461V66.125H2.55859ZM5.10938 70.7715C5.10938 70.1504 5.23047 69.5918 5.47266 69.0957C5.71875 68.5996 6.05859 68.2168 6.49219 67.9473C6.92969 67.6777 7.42773 67.543 7.98633 67.543C8.84961 67.543 9.54688 67.8418 10.0781 68.4395C10.6133 69.0371 10.8809 69.832 10.8809 70.8242V70.9004C10.8809 71.5176 10.7617 72.0723 10.5234 72.5645C10.2891 73.0527 9.95117 73.4336 9.50977 73.707C9.07227 73.9805 8.56836 74.1172 7.99805 74.1172C7.13867 74.1172 6.44141 73.8184 5.90625 73.2207C5.375 72.623 5.10938 71.832 5.10938 70.8477V70.7715ZM6.19922 70.9004C6.19922 71.6035 6.36133 72.168 6.68555 72.5938C7.01367 73.0195 7.45117 73.2324 7.99805 73.2324C8.54883 73.2324 8.98633 73.0176 9.31055 72.5879C9.63477 72.1543 9.79688 71.5488 9.79688 70.7715C9.79688 70.0762 9.63086 69.5137 9.29883 69.084C8.9707 68.6504 8.5332 68.4336 7.98633 68.4336C7.45117 68.4336 7.01953 68.6465 6.69141 69.0723C6.36328 69.498 6.19922 70.1074 6.19922 70.9004ZM18.8477 74.1172C17.9883 74.1172 17.2891 73.8359 16.75 73.2734C16.2109 72.707 15.9414 71.9512 15.9414 71.0059V70.8066C15.9414 70.1777 16.0605 69.6172 16.2988 69.125C16.541 68.6289 16.877 68.2422 17.3066 67.9648C17.7402 67.6836 18.209 67.543 18.7129 67.543C19.5371 67.543 20.1777 67.8145 20.6348 68.3574C21.0918 68.9004 21.3203 69.6777 21.3203 70.6895V71.1406H17.0254C17.041 71.7656 17.2227 72.2715 17.5703 72.6582C17.9219 73.041 18.3672 73.2324 18.9062 73.2324C19.2891 73.2324 19.6133 73.1543 19.8789 72.998C20.1445 72.8418 20.377 72.6348 20.5762 72.377L21.2383 72.8926C20.707 73.709 19.9102 74.1172 18.8477 74.1172ZM18.7129 68.4336C18.2754 68.4336 17.9082 68.5938 17.6113 68.9141C17.3145 69.2305 17.1309 69.6758 17.0605 70.25H20.2363V70.168C20.2051 69.6172 20.0566 69.1914 19.791 68.8906C19.5254 68.5859 19.166 68.4336 18.7129 68.4336ZM25.207 69.9746L26.6133 67.6602H27.8789L25.8047 70.7949L27.9434 74H26.6895L25.2246 71.627L23.7598 74H22.5L24.6387 70.7949L22.5645 67.6602H23.8184L25.207 69.9746ZM34.8887 70.9004C34.8887 71.8652 34.668 72.6426 34.2266 73.2324C33.7852 73.8223 33.1875 74.1172 32.4336 74.1172C31.6641 74.1172 31.0586 73.873 30.6172 73.3848V76.4375H29.5332V67.6602H30.5234L30.5762 68.3633C31.0176 67.8164 31.6309 67.543 32.416 67.543C33.1777 67.543 33.7793 67.8301 34.2207 68.4043C34.666 68.9785 34.8887 69.7773 34.8887 70.8008V70.9004ZM33.8047 70.7773C33.8047 70.0625 33.6523 69.498 33.3477 69.084C33.043 68.6699 32.625 68.4629 32.0938 68.4629C31.4375 68.4629 30.9453 68.7539 30.6172 69.3359V72.3652C30.9414 72.9434 31.4375 73.2324 32.1055 73.2324C32.625 73.2324 33.0371 73.0273 33.3418 72.6172C33.6504 72.2031 33.8047 71.5898 33.8047 70.7773ZM39.4023 74.1172C38.543 74.1172 37.8438 73.8359 37.3047 73.2734C36.7656 72.707 36.4961 71.9512 36.4961 71.0059V70.8066C36.4961 70.1777 36.6152 69.6172 36.8535 69.125C37.0957 68.6289 37.4316 68.2422 37.8613 67.9648C38.2949 67.6836 38.7637 67.543 39.2676 67.543C40.0918 67.543 40.7324 67.8145 41.1895 68.3574C41.6465 68.9004 41.875 69.6777 41.875 70.6895V71.1406H37.5801C37.5957 71.7656 37.7773 72.2715 38.125 72.6582C38.4766 73.041 38.9219 73.2324 39.4609 73.2324C39.8438 73.2324 40.168 73.1543 40.4336 72.998C40.6992 72.8418 40.9316 72.6348 41.1309 72.377L41.793 72.8926C41.2617 73.709 40.4648 74.1172 39.4023 74.1172ZM39.2676 68.4336C38.8301 68.4336 38.4629 68.5938 38.166 68.9141C37.8691 69.2305 37.6855 69.6758 37.6152 70.25H40.791V70.168C40.7598 69.6172 40.6113 69.1914 40.3457 68.8906C40.0801 68.5859 39.7207 68.4336 39.2676 68.4336ZM46.6992 68.6328C46.5352 68.6055 46.3574 68.5918 46.166 68.5918C45.4551 68.5918 44.9727 68.8945 44.7188 69.5V74H43.6348V67.6602H44.6895L44.707 68.3926C45.0625 67.8262 45.5664 67.543 46.2188 67.543C46.4297 67.543 46.5898 67.5703 46.6992 67.625V68.6328ZM49.3789 74H48.2949V67.6602H49.3789V74ZM48.207 65.9785C48.207 65.8027 48.2598 65.6543 48.3652 65.5332C48.4746 65.4121 48.6348 65.3516 48.8457 65.3516C49.0566 65.3516 49.2168 65.4121 49.3262 65.5332C49.4355 65.6543 49.4902 65.8027 49.4902 65.9785C49.4902 66.1543 49.4355 66.3008 49.3262 66.418C49.2168 66.5352 49.0566 66.5938 48.8457 66.5938C48.6348 66.5938 48.4746 66.5352 48.3652 66.418C48.2598 66.3008 48.207 66.1543 48.207 65.9785ZM52.6387 67.6602L52.668 68.3633C53.1328 67.8164 53.7598 67.543 54.5488 67.543C55.4355 67.543 56.0391 67.8828 56.3594 68.5625C56.5703 68.2578 56.8438 68.0117 57.1797 67.8242C57.5195 67.6367 57.9199 67.543 58.3809 67.543C59.7715 67.543 60.4785 68.2793 60.502 69.752V74H59.418V69.8164C59.418 69.3633 59.3145 69.0254 59.1074 68.8027C58.9004 68.5762 58.5527 68.4629 58.0645 68.4629C57.6621 68.4629 57.3281 68.584 57.0625 68.8262C56.7969 69.0645 56.6426 69.3867 56.5996 69.793V74H55.5098V69.8457C55.5098 68.9238 55.0586 68.4629 54.1562 68.4629C53.4453 68.4629 52.959 68.7656 52.6973 69.3711V74H51.6133V67.6602H52.6387ZM65.2734 74.1172C64.4141 74.1172 63.7148 73.8359 63.1758 73.2734C62.6367 72.707 62.3672 71.9512 62.3672 71.0059V70.8066C62.3672 70.1777 62.4863 69.6172 62.7246 69.125C62.9668 68.6289 63.3027 68.2422 63.7324 67.9648C64.166 67.6836 64.6348 67.543 65.1387 67.543C65.9629 67.543 66.6035 67.8145 67.0605 68.3574C67.5176 68.9004 67.7461 69.6777 67.7461 70.6895V71.1406H63.4512C63.4668 71.7656 63.6484 72.2715 63.9961 72.6582C64.3477 73.041 64.793 73.2324 65.332 73.2324C65.7148 73.2324 66.0391 73.1543 66.3047 72.998C66.5703 72.8418 66.8027 72.6348 67.002 72.377L67.6641 72.8926C67.1328 73.709 66.3359 74.1172 65.2734 74.1172ZM65.1387 68.4336C64.7012 68.4336 64.334 68.5938 64.0371 68.9141C63.7402 69.2305 63.5566 69.6758 63.4863 70.25H66.6621V70.168C66.6309 69.6172 66.4824 69.1914 66.2168 68.8906C65.9512 68.5859 65.5918 68.4336 65.1387 68.4336ZM70.5312 67.6602L70.5664 68.457C71.0508 67.8477 71.6836 67.543 72.4648 67.543C73.8047 67.543 74.4805 68.2988 74.4922 69.8105V74H73.4082V69.8047C73.4043 69.3477 73.2988 69.0098 73.0918 68.791C72.8887 68.5723 72.5703 68.4629 72.1367 68.4629C71.7852 68.4629 71.4766 68.5566 71.2109 68.7441C70.9453 68.9316 70.7383 69.1777 70.5898 69.4824V74H69.5059V67.6602H70.5312ZM78.0977 66.125V67.6602H79.2812V68.498H78.0977V72.4297C78.0977 72.6836 78.1504 72.875 78.2559 73.0039C78.3613 73.1289 78.541 73.1914 78.7949 73.1914C78.9199 73.1914 79.0918 73.168 79.3105 73.1211V74C79.0254 74.0781 78.748 74.1172 78.4785 74.1172C77.9941 74.1172 77.6289 73.9707 77.3828 73.6777C77.1367 73.3848 77.0137 72.9688 77.0137 72.4297V68.498H75.8594V67.6602H77.0137V66.125H78.0977Z" fill="#264F70"/>
<path d="M51.5957 5.45703L51.502 6.37695H51.2969C50.5156 6.39258 49.8477 6.63477 49.293 7.10352C48.7383 7.57227 48.3086 8.26367 48.0039 9.17773C48.5352 8.64648 49.1562 8.38867 49.8672 8.4043C50.3164 8.41211 50.7012 8.53711 51.0215 8.7793C51.3418 9.01758 51.5762 9.34961 51.7246 9.77539C51.877 10.1973 51.9297 10.6641 51.8828 11.1758C51.8047 12.0391 51.4941 12.752 50.9512 13.3145C50.4121 13.873 49.748 14.1406 48.959 14.1172C48.3262 14.1016 47.8066 13.8691 47.4004 13.4199C46.9941 12.9707 46.7617 12.3691 46.7031 11.6152C46.6719 11.2051 46.7207 10.6504 46.8496 9.95117C47.1191 8.49414 47.6504 7.38086 48.4434 6.61133C49.2402 5.8418 50.252 5.45703 51.4785 5.45703H51.5957ZM49.6387 9.30078C49.2598 9.29297 48.9043 9.40234 48.5723 9.62891C48.2402 9.85547 47.9844 10.1445 47.8047 10.4961L47.7637 10.8887L47.752 11.3633C47.752 11.6836 47.8008 11.9941 47.8984 12.2949C47.9961 12.5957 48.1406 12.8242 48.332 12.9805C48.5234 13.1367 48.748 13.2168 49.0059 13.2207C49.4785 13.2402 49.8828 13.0645 50.2188 12.6934C50.5586 12.3223 50.7617 11.834 50.8281 11.2285C50.8672 10.877 50.8457 10.5547 50.7637 10.2617C50.6816 9.96875 50.5449 9.73828 50.3535 9.57031C50.166 9.39844 49.9277 9.30859 49.6387 9.30078ZM58.7012 8.43359C59.2559 7.82812 59.8945 7.5332 60.6172 7.54883C61.2109 7.55664 61.6504 7.76172 61.9355 8.16406C62.2246 8.5625 62.332 9.12305 62.2578 9.8457L61.5664 14H60.5059L61.2031 9.82812C61.2266 9.63672 61.2285 9.45898 61.209 9.29492C61.1426 8.74805 60.8203 8.46875 60.2422 8.45703C59.5938 8.44141 59.0352 8.78125 58.5664 9.47656L57.7812 14H56.7207L58.2852 5H59.3457L58.7012 8.43359ZM67.2109 7.54297C67.7422 7.55078 68.1973 7.69531 68.5762 7.97656C68.9551 8.25781 69.2344 8.64648 69.4141 9.14258C69.5977 9.63477 69.6602 10.1738 69.6016 10.7598L69.5898 10.8887C69.5156 11.5059 69.332 12.0645 69.0391 12.5645C68.7461 13.0605 68.3672 13.4473 67.9023 13.7246C67.4375 14.002 66.9277 14.1328 66.373 14.1172C65.8457 14.1094 65.3906 13.9648 65.0078 13.6836C64.6289 13.4023 64.3516 13.0195 64.1758 12.5352C64 12.0508 63.9375 11.5176 63.9883 10.9355C64.0469 10.2793 64.2246 9.68945 64.5215 9.16602C64.8184 8.64258 65.1992 8.23828 65.6641 7.95312C66.1328 7.66406 66.6484 7.52734 67.2109 7.54297ZM65.0547 10.9414C65.0273 11.1875 65.0273 11.4434 65.0547 11.709C65.0938 12.1699 65.2305 12.5371 65.4648 12.8105C65.7031 13.084 66.0195 13.2266 66.4141 13.2383C66.7656 13.25 67.0898 13.1641 67.3867 12.9805C67.6836 12.793 67.9336 12.5117 68.1367 12.1367C68.3398 11.7617 68.4707 11.3457 68.5293 10.8887C68.5605 10.5293 68.5664 10.2266 68.5469 9.98047C68.5 9.50781 68.3574 9.13477 68.1191 8.86133C67.8809 8.58789 67.5645 8.44336 67.1699 8.42773C66.623 8.41602 66.1582 8.63086 65.7754 9.07227C65.3926 9.51367 65.1562 10.0918 65.0664 10.8066L65.0547 10.9414ZM74.918 13.373C74.4219 13.8848 73.791 14.1328 73.0254 14.1172C72.4199 14.1016 71.9707 13.8848 71.6777 13.4668C71.3887 13.0488 71.2812 12.4785 71.3555 11.7559L72.0352 7.66016H73.0957L72.4102 11.7734C72.3906 11.9453 72.3867 12.1133 72.3984 12.2773C72.418 12.5586 72.502 12.7793 72.6504 12.9395C72.7988 13.0996 73.0059 13.1855 73.2715 13.1973C74.0293 13.2207 74.6152 12.9141 75.0293 12.2773L75.8262 7.66016H76.8867L75.7852 14H74.7832L74.918 13.373ZM81.8164 8.62695L81.3184 8.57422C80.6387 8.57422 80.1035 8.88086 79.7129 9.49414L78.9336 14H77.873L78.9746 7.66016L80 7.6543L79.8418 8.39258C80.291 7.80273 80.8203 7.51562 81.4297 7.53125C81.5586 7.53125 81.7266 7.56055 81.9336 7.61914L81.8164 8.62695ZM89.6895 14C89.6621 13.8867 89.6484 13.7754 89.6484 13.666L89.666 13.332C89.084 13.8711 88.4668 14.1328 87.8145 14.1172C87.2559 14.1094 86.8008 13.9336 86.4492 13.5898C86.1016 13.2422 85.9434 12.8086 85.9746 12.2891C86.0137 11.6172 86.3066 11.0938 86.8535 10.7188C87.4043 10.3398 88.127 10.1504 89.0215 10.1504L90.1289 10.1562L90.1992 9.65234C90.2383 9.27344 90.1641 8.97461 89.9766 8.75586C89.793 8.5332 89.5156 8.41797 89.1445 8.41016C88.7812 8.40234 88.459 8.49219 88.1777 8.67969C87.9004 8.86328 87.7305 9.10742 87.668 9.41211L86.6016 9.41797C86.6367 9.04688 86.7812 8.71875 87.0352 8.43359C87.2891 8.14453 87.6152 7.92188 88.0137 7.76562C88.4121 7.60547 88.8242 7.5293 89.25 7.53711C89.9102 7.55273 90.4238 7.75391 90.791 8.14062C91.1582 8.52344 91.3125 9.0332 91.2539 9.66992L90.7383 12.8105L90.709 13.2617C90.7012 13.4766 90.7246 13.6895 90.7793 13.9004L90.7676 14H89.6895ZM88.0254 13.1797C88.3652 13.1875 88.6855 13.1074 88.9863 12.9395C89.291 12.7676 89.5527 12.5312 89.7715 12.2305L90 10.9238L89.1973 10.918C88.5293 10.918 88.0176 11.0234 87.6621 11.2344C87.3066 11.4453 87.1055 11.7441 87.0586 12.1309C87.0234 12.4277 87.0918 12.6758 87.2637 12.875C87.4395 13.0703 87.6934 13.1719 88.0254 13.1797ZM95.5098 6.125L95.2402 7.66016H96.3945L96.248 8.49805H95.0996L94.4375 12.4414C94.4258 12.543 94.4238 12.6367 94.4316 12.7227C94.459 13.0273 94.625 13.1797 94.9297 13.1797C95.0586 13.1797 95.2305 13.1602 95.4453 13.1211L95.3633 14.0059C95.1094 14.0762 94.8516 14.1113 94.5898 14.1113C94.168 14.1035 93.8516 13.9492 93.6406 13.6484C93.4297 13.3438 93.3477 12.9355 93.3945 12.4238L94.0391 8.49805H92.9199L93.0664 7.66016H94.1855L94.4551 6.125H95.5098ZM99.877 6.125L99.6074 7.66016H100.762L100.615 8.49805H99.4668L98.8047 12.4414C98.793 12.543 98.791 12.6367 98.7988 12.7227C98.8262 13.0273 98.9922 13.1797 99.2969 13.1797C99.4258 13.1797 99.5977 13.1602 99.8125 13.1211L99.7305 14.0059C99.4766 14.0762 99.2188 14.1113 98.957 14.1113C98.5352 14.1035 98.2188 13.9492 98.0078 13.6484C97.7969 13.3438 97.7148 12.9355 97.7617 12.4238L98.4062 8.49805H97.2871L97.4336 7.66016H98.5527L98.8223 6.125H99.877ZM105.387 8.62695L104.889 8.57422C104.209 8.57422 103.674 8.88086 103.283 9.49414L102.504 14H101.443L102.545 7.66016L103.57 7.6543L103.412 8.39258C103.861 7.80273 104.391 7.51562 105 7.53125C105.129 7.53125 105.297 7.56055 105.504 7.61914L105.387 8.62695ZM107.088 14H106.033L107.135 7.66016H108.189L107.088 14ZM107.961 5.3457C108.141 5.33789 108.289 5.39258 108.406 5.50977C108.527 5.62305 108.588 5.77344 108.588 5.96094C108.584 6.14453 108.523 6.29492 108.406 6.41211C108.293 6.5293 108.145 6.5918 107.961 6.59961C107.777 6.60742 107.627 6.55469 107.51 6.44141C107.393 6.32812 107.336 6.17969 107.34 5.99609C107.344 5.8125 107.402 5.66016 107.516 5.53906C107.629 5.41797 107.777 5.35352 107.961 5.3457ZM115.076 10.8594C114.998 11.5078 114.82 12.0918 114.543 12.6113C114.266 13.1309 113.93 13.5156 113.535 13.7656C113.141 14.0156 112.703 14.1348 112.223 14.123C111.457 14.1074 110.889 13.8203 110.518 13.2617L110.301 14H109.322L110.887 5H111.947L111.309 8.36328C111.816 7.80078 112.434 7.52734 113.16 7.54297C113.77 7.55859 114.244 7.7832 114.584 8.2168C114.924 8.65039 115.104 9.24805 115.123 10.0098C115.127 10.2598 115.115 10.502 115.088 10.7363L115.076 10.8594ZM114.068 10.2441C114.08 9.67383 113.984 9.23828 113.781 8.9375C113.578 8.63281 113.268 8.47266 112.85 8.45703C112.189 8.44141 111.631 8.77344 111.174 9.45312L110.699 12.2129C110.934 12.8574 111.373 13.1875 112.018 13.2031C112.432 13.2188 112.793 13.0957 113.102 12.834C113.414 12.5723 113.65 12.207 113.811 11.7383C113.971 11.2656 114.057 10.7676 114.068 10.2441ZM120.445 13.373C119.949 13.8848 119.318 14.1328 118.553 14.1172C117.947 14.1016 117.498 13.8848 117.205 13.4668C116.916 13.0488 116.809 12.4785 116.883 11.7559L117.562 7.66016H118.623L117.938 11.7734C117.918 11.9453 117.914 12.1133 117.926 12.2773C117.945 12.5586 118.029 12.7793 118.178 12.9395C118.326 13.0996 118.533 13.1855 118.799 13.1973C119.557 13.2207 120.143 12.9141 120.557 12.2773L121.354 7.66016H122.414L121.312 14H120.311L120.445 13.373ZM126.201 6.125L125.932 7.66016H127.086L126.939 8.49805H125.791L125.129 12.4414C125.117 12.543 125.115 12.6367 125.123 12.7227C125.15 13.0273 125.316 13.1797 125.621 13.1797C125.75 13.1797 125.922 13.1602 126.137 13.1211L126.055 14.0059C125.801 14.0762 125.543 14.1113 125.281 14.1113C124.859 14.1035 124.543 13.9492 124.332 13.6484C124.121 13.3438 124.039 12.9355 124.086 12.4238L124.73 8.49805H123.611L123.758 7.66016H124.877L125.146 6.125H126.201ZM128.916 14H127.861L128.963 7.66016H130.018L128.916 14ZM129.789 5.3457C129.969 5.33789 130.117 5.39258 130.234 5.50977C130.355 5.62305 130.416 5.77344 130.416 5.96094C130.412 6.14453 130.352 6.29492 130.234 6.41211C130.121 6.5293 129.973 6.5918 129.789 6.59961C129.605 6.60742 129.455 6.55469 129.338 6.44141C129.221 6.32812 129.164 6.17969 129.168 5.99609C129.172 5.8125 129.23 5.66016 129.344 5.53906C129.457 5.41797 129.605 5.35352 129.789 5.3457ZM134.672 7.54297C135.203 7.55078 135.658 7.69531 136.037 7.97656C136.416 8.25781 136.695 8.64648 136.875 9.14258C137.059 9.63477 137.121 10.1738 137.062 10.7598L137.051 10.8887C136.977 11.5059 136.793 12.0645 136.5 12.5645C136.207 13.0605 135.828 13.4473 135.363 13.7246C134.898 14.002 134.389 14.1328 133.834 14.1172C133.307 14.1094 132.852 13.9648 132.469 13.6836C132.09 13.4023 131.812 13.0195 131.637 12.5352C131.461 12.0508 131.398 11.5176 131.449 10.9355C131.508 10.2793 131.686 9.68945 131.982 9.16602C132.279 8.64258 132.66 8.23828 133.125 7.95312C133.594 7.66406 134.109 7.52734 134.672 7.54297ZM132.516 10.9414C132.488 11.1875 132.488 11.4434 132.516 11.709C132.555 12.1699 132.691 12.5371 132.926 12.8105C133.164 13.084 133.48 13.2266 133.875 13.2383C134.227 13.25 134.551 13.1641 134.848 12.9805C135.145 12.793 135.395 12.5117 135.598 12.1367C135.801 11.7617 135.932 11.3457 135.99 10.8887C136.021 10.5293 136.027 10.2266 136.008 9.98047C135.961 9.50781 135.818 9.13477 135.58 8.86133C135.342 8.58789 135.025 8.44336 134.631 8.42773C134.084 8.41602 133.619 8.63086 133.236 9.07227C132.854 9.51367 132.617 10.0918 132.527 10.8066L132.516 10.9414ZM140.457 7.6543L140.305 8.45703C140.875 7.83203 141.523 7.52734 142.25 7.54297C142.848 7.55859 143.289 7.76562 143.574 8.16406C143.859 8.5625 143.965 9.12305 143.891 9.8457L143.199 14H142.139L142.836 9.82812C142.859 9.63672 142.861 9.45898 142.842 9.29492C142.775 8.74805 142.453 8.46875 141.875 8.45703C141.238 8.44531 140.68 8.78516 140.199 9.47656L139.414 14H138.354L139.455 7.66016L140.457 7.6543ZM154.465 12.5L156.486 7.66016H157.582L154.693 14H153.832L153.176 9.20703L150.891 14H150.029L149.344 7.66016H150.357L150.744 12.3828L152.994 7.66016H153.85L154.465 12.5ZM159.236 14H158.182L159.283 7.66016H160.338L159.236 14ZM160.109 5.3457C160.289 5.33789 160.438 5.39258 160.555 5.50977C160.676 5.62305 160.736 5.77344 160.736 5.96094C160.732 6.14453 160.672 6.29492 160.555 6.41211C160.441 6.5293 160.293 6.5918 160.109 6.59961C159.926 6.60742 159.775 6.55469 159.658 6.44141C159.541 6.32812 159.484 6.17969 159.488 5.99609C159.492 5.8125 159.551 5.66016 159.664 5.53906C159.777 5.41797 159.926 5.35352 160.109 5.3457ZM163.574 7.6543L163.422 8.45703C163.992 7.83203 164.641 7.52734 165.367 7.54297C165.965 7.55859 166.406 7.76562 166.691 8.16406C166.977 8.5625 167.082 9.12305 167.008 9.8457L166.316 14H165.256L165.953 9.82812C165.977 9.63672 165.979 9.45898 165.959 9.29492C165.893 8.74805 165.57 8.46875 164.992 8.45703C164.355 8.44531 163.797 8.78516 163.316 9.47656L162.531 14H161.471L162.572 7.66016L163.574 7.6543ZM168.756 10.8184C168.834 10.1738 169.012 9.5918 169.289 9.07227C169.566 8.55273 169.908 8.16406 170.314 7.90625C170.721 7.64844 171.168 7.52539 171.656 7.53711C172.363 7.55273 172.906 7.81055 173.285 8.31055L173.895 5H174.955L173.396 14H172.43L172.541 13.3203C172.041 13.8672 171.424 14.1328 170.689 14.1172C170.104 14.1016 169.637 13.873 169.289 13.4316C168.941 12.9863 168.754 12.3906 168.727 11.6445C168.715 11.4141 168.725 11.1387 168.756 10.8184ZM169.775 11.4277C169.764 11.9863 169.863 12.4199 170.074 12.7285C170.285 13.0371 170.594 13.1953 171 13.2031C171.613 13.2305 172.158 12.9219 172.635 12.2773L173.139 9.34766C172.904 8.76953 172.479 8.47266 171.861 8.45703C171.443 8.44531 171.074 8.57227 170.754 8.83789C170.438 9.09961 170.195 9.46875 170.027 9.94531C169.863 10.418 169.779 10.9121 169.775 11.4277ZM179.094 7.54297C179.625 7.55078 180.08 7.69531 180.459 7.97656C180.838 8.25781 181.117 8.64648 181.297 9.14258C181.48 9.63477 181.543 10.1738 181.484 10.7598L181.473 10.8887C181.398 11.5059 181.215 12.0645 180.922 12.5645C180.629 13.0605 180.25 13.4473 179.785 13.7246C179.32 14.002 178.811 14.1328 178.256 14.1172C177.729 14.1094 177.273 13.9648 176.891 13.6836C176.512 13.4023 176.234 13.0195 176.059 12.5352C175.883 12.0508 175.82 11.5176 175.871 10.9355C175.93 10.2793 176.107 9.68945 176.404 9.16602C176.701 8.64258 177.082 8.23828 177.547 7.95312C178.016 7.66406 178.531 7.52734 179.094 7.54297ZM176.938 10.9414C176.91 11.1875 176.91 11.4434 176.938 11.709C176.977 12.1699 177.113 12.5371 177.348 12.8105C177.586 13.084 177.902 13.2266 178.297 13.2383C178.648 13.25 178.973 13.1641 179.27 12.9805C179.566 12.793 179.816 12.5117 180.02 12.1367C180.223 11.7617 180.354 11.3457 180.412 10.8887C180.443 10.5293 180.449 10.2266 180.43 9.98047C180.383 9.50781 180.24 9.13477 180.002 8.86133C179.764 8.58789 179.447 8.44336 179.053 8.42773C178.506 8.41602 178.041 8.63086 177.658 9.07227C177.275 9.51367 177.039 10.0918 176.949 10.8066L176.938 10.9414ZM188.465 12.5L190.486 7.66016H191.582L188.693 14H187.832L187.176 9.20703L184.891 14H184.029L183.344 7.66016H184.357L184.744 12.3828L186.994 7.66016H187.85L188.465 12.5Z" fill="#264F70"/>
<path d="M214.715 23.1367L210.08 31H208.92L213.531 23.3594H209.078L209.219 22.4688H214.82L214.715 23.1367ZM220.701 25.4336C221.256 24.8281 221.895 24.5332 222.617 24.5488C223.211 24.5566 223.65 24.7617 223.936 25.1641C224.225 25.5625 224.332 26.123 224.258 26.8457L223.566 31H222.506L223.203 26.8281C223.227 26.6367 223.229 26.459 223.209 26.2949C223.143 25.748 222.82 25.4688 222.242 25.457C221.594 25.4414 221.035 25.7812 220.566 26.4766L219.781 31H218.721L220.285 22H221.346L220.701 25.4336ZM229.211 24.543C229.742 24.5508 230.197 24.6953 230.576 24.9766C230.955 25.2578 231.234 25.6465 231.414 26.1426C231.598 26.6348 231.66 27.1738 231.602 27.7598L231.59 27.8887C231.516 28.5059 231.332 29.0645 231.039 29.5645C230.746 30.0605 230.367 30.4473 229.902 30.7246C229.438 31.002 228.928 31.1328 228.373 31.1172C227.846 31.1094 227.391 30.9648 227.008 30.6836C226.629 30.4023 226.352 30.0195 226.176 29.5352C226 29.0508 225.938 28.5176 225.988 27.9355C226.047 27.2793 226.225 26.6895 226.521 26.166C226.818 25.6426 227.199 25.2383 227.664 24.9531C228.133 24.6641 228.648 24.5273 229.211 24.543ZM227.055 27.9414C227.027 28.1875 227.027 28.4434 227.055 28.709C227.094 29.1699 227.23 29.5371 227.465 29.8105C227.703 30.084 228.02 30.2266 228.414 30.2383C228.766 30.25 229.09 30.1641 229.387 29.9805C229.684 29.793 229.934 29.5117 230.137 29.1367C230.34 28.7617 230.471 28.3457 230.529 27.8887C230.561 27.5293 230.566 27.2266 230.547 26.9805C230.5 26.5078 230.357 26.1348 230.119 25.8613C229.881 25.5879 229.564 25.4434 229.17 25.4277C228.623 25.416 228.158 25.6309 227.775 26.0723C227.393 26.5137 227.156 27.0918 227.066 27.8066L227.055 27.9414ZM236.918 30.373C236.422 30.8848 235.791 31.1328 235.025 31.1172C234.42 31.1016 233.971 30.8848 233.678 30.4668C233.389 30.0488 233.281 29.4785 233.355 28.7559L234.035 24.6602H235.096L234.41 28.7734C234.391 28.9453 234.387 29.1133 234.398 29.2773C234.418 29.5586 234.502 29.7793 234.65 29.9395C234.799 30.0996 235.006 30.1855 235.271 30.1973C236.029 30.2207 236.615 29.9141 237.029 29.2773L237.826 24.6602H238.887L237.785 31H236.783L236.918 30.373ZM243.816 25.627L243.318 25.5742C242.639 25.5742 242.104 25.8809 241.713 26.4941L240.934 31H239.873L240.975 24.6602L242 24.6543L241.842 25.3926C242.291 24.8027 242.82 24.5156 243.43 24.5312C243.559 24.5312 243.727 24.5605 243.934 24.6191L243.816 25.627ZM248.295 29.2832C248.354 28.8457 248.113 28.5371 247.574 28.3574L246.473 28.0352C245.543 27.7148 245.094 27.1836 245.125 26.4414C245.152 25.8828 245.406 25.4258 245.887 25.0703C246.371 24.7109 246.939 24.5352 247.592 24.543C248.232 24.5508 248.752 24.7383 249.15 25.1055C249.553 25.4688 249.746 25.9434 249.73 26.5293L248.676 26.5234C248.684 26.207 248.584 25.9492 248.377 25.75C248.17 25.5508 247.895 25.4473 247.551 25.4395C247.184 25.4316 246.867 25.5215 246.602 25.709C246.355 25.8848 246.213 26.1152 246.174 26.4004C246.123 26.7676 246.348 27.0352 246.848 27.2031L247.381 27.3496C248.107 27.5371 248.623 27.7812 248.928 28.082C249.232 28.3828 249.373 28.7559 249.35 29.2012C249.326 29.5957 249.197 29.9395 248.963 30.2324C248.729 30.5254 248.416 30.75 248.025 30.9062C247.635 31.0586 247.219 31.1289 246.777 31.1172C246.105 31.1094 245.551 30.9141 245.113 30.5312C244.676 30.1445 244.465 29.6484 244.48 29.043L245.541 29.0488C245.541 29.4043 245.654 29.6895 245.881 29.9043C246.107 30.1191 246.418 30.2266 246.812 30.2266C247.199 30.2344 247.533 30.1543 247.814 29.9863C248.096 29.8145 248.256 29.5801 248.295 29.2832Z" fill="#264F70"/>
<path d="M40 29.5586C42.5842 27.2043 46.7965 25.4386 52.6369 24.2615C58.4773 23.099 66.1783 22.5178 75.7399 22.5178L94.4239 22.5178C108.999 22.5178 116.287 20.6786 116.287 17H121.403C121.403 20.6786 128.639 22.5178 143.111 22.5178L162.26 22.5178C171.822 22.5325 179.523 23.1211 185.363 24.2835C191.203 25.4607 195.416 27.219 198 29.5586L194.511 29.8896C189.808 25.7697 178.773 23.7097 161.407 23.7097L143.731 23.7097C129.673 23.7097 121.377 22.1573 118.845 19.0526C116.106 22.1573 107.81 23.7097 93.9588 23.7097H76.2051C59.4076 23.7097 48.528 25.8065 43.5662 30L40 29.5586Z" fill="#264F70"/>
</svg>
