<svg width="239" height="59" viewBox="0 0 239 59" fill="none" xmlns="http://www.w3.org/2000/svg">
<path d="M0 36L10 41.7735V30.2265L0 36ZM230 36L220 30.2265V41.7735L230 36ZM9 37H221V35H9V37Z" fill="#264F70"/>
<line x1="115.5" y1="30" x2="115.5" y2="42" stroke="#264F70"/>
<line x1="65.5" y1="30" x2="65.5" y2="42" stroke="#264F70"/>
<line x1="165.5" y1="30" x2="165.5" y2="42" stroke="#264F70"/>
<path d="M110.207 48.7227L110.641 44.4688H115.012V45.4707H111.561L111.303 47.7969C111.721 47.5508 112.195 47.4277 112.727 47.4277C113.504 47.4277 114.121 47.6855 114.578 48.2012C115.035 48.7129 115.264 49.4062 115.264 50.2812C115.264 51.1602 115.025 51.8535 114.549 52.3613C114.076 52.8652 113.414 53.1172 112.562 53.1172C111.809 53.1172 111.193 52.9082 110.717 52.4902C110.24 52.0723 109.969 51.4941 109.902 50.7559H110.928C110.994 51.2441 111.168 51.6133 111.449 51.8633C111.73 52.1094 112.102 52.2324 112.562 52.2324C113.066 52.2324 113.461 52.0605 113.746 51.7168C114.035 51.373 114.18 50.8984 114.18 50.293C114.18 49.7227 114.023 49.2656 113.711 48.9219C113.402 48.5742 112.99 48.4004 112.475 48.4004C112.002 48.4004 111.631 48.5039 111.361 48.7109L111.074 48.9453L110.207 48.7227ZM116.854 46.1094C116.854 45.5977 117.016 45.1758 117.34 44.8438C117.668 44.5117 118.088 44.3457 118.6 44.3457C119.119 44.3457 119.539 44.5137 119.859 44.8496C120.184 45.1816 120.346 45.6133 120.346 46.1445V46.5605C120.346 47.0762 120.182 47.498 119.854 47.8262C119.529 48.1504 119.115 48.3125 118.611 48.3125C118.104 48.3125 117.684 48.1504 117.352 47.8262C117.02 47.498 116.854 47.0625 116.854 46.5195V46.1094ZM117.662 46.5605C117.662 46.8652 117.748 47.1172 117.92 47.3164C118.092 47.5117 118.322 47.6094 118.611 47.6094C118.889 47.6094 119.111 47.5137 119.279 47.3223C119.451 47.1309 119.537 46.8691 119.537 46.5371V46.1094C119.537 45.8047 119.453 45.5527 119.285 45.3535C119.117 45.1543 118.889 45.0547 118.6 45.0547C118.311 45.0547 118.082 45.1543 117.914 45.3535C117.746 45.5527 117.662 45.8125 117.662 46.1328V46.5605ZM121.008 50.9082C121.008 50.3965 121.17 49.9766 121.494 49.6484C121.822 49.3164 122.242 49.1504 122.754 49.1504C123.266 49.1504 123.686 49.3145 124.014 49.6426C124.342 49.9707 124.506 50.4062 124.506 50.9492V51.3652C124.506 51.877 124.342 52.2988 124.014 52.6309C123.689 52.959 123.273 53.123 122.766 53.123C122.258 53.123 121.838 52.9609 121.506 52.6367C121.174 52.3086 121.008 51.873 121.008 51.3301V50.9082ZM121.816 51.3652C121.816 51.6738 121.902 51.9277 122.074 52.127C122.246 52.3223 122.477 52.4199 122.766 52.4199C123.047 52.4199 123.271 52.3242 123.439 52.1328C123.607 51.9375 123.691 51.6738 123.691 51.3418V50.9082C123.691 50.5996 123.605 50.3477 123.434 50.1523C123.266 49.957 123.039 49.8594 122.754 49.8594C122.477 49.8594 122.25 49.957 122.074 50.1523C121.902 50.3438 121.816 50.6035 121.816 50.9316V51.3652ZM118.857 52.3555L118.242 51.9688L122.408 45.3008L123.023 45.6875L118.857 52.3555Z" fill="#264F70"/>
<path d="M155.207 48.7227L155.641 44.4688H160.012V45.4707H156.561L156.303 47.7969C156.721 47.5508 157.195 47.4277 157.727 47.4277C158.504 47.4277 159.121 47.6855 159.578 48.2012C160.035 48.7129 160.264 49.4062 160.264 50.2812C160.264 51.1602 160.025 51.8535 159.549 52.3613C159.076 52.8652 158.414 53.1172 157.562 53.1172C156.809 53.1172 156.193 52.9082 155.717 52.4902C155.24 52.0723 154.969 51.4941 154.902 50.7559H155.928C155.994 51.2441 156.168 51.6133 156.449 51.8633C156.73 52.1094 157.102 52.2324 157.562 52.2324C158.066 52.2324 158.461 52.0605 158.746 51.7168C159.035 51.373 159.18 50.8984 159.18 50.293C159.18 49.7227 159.023 49.2656 158.711 48.9219C158.402 48.5742 157.99 48.4004 157.475 48.4004C157.002 48.4004 156.631 48.5039 156.361 48.7109L156.074 48.9453L155.207 48.7227ZM162.082 52.4316C162.082 52.2441 162.137 52.0879 162.246 51.9629C162.359 51.8379 162.527 51.7754 162.75 51.7754C162.973 51.7754 163.141 51.8379 163.254 51.9629C163.371 52.0879 163.43 52.2441 163.43 52.4316C163.43 52.6113 163.371 52.7617 163.254 52.8828C163.141 53.0039 162.973 53.0645 162.75 53.0645C162.527 53.0645 162.359 53.0039 162.246 52.8828C162.137 52.7617 162.082 52.6113 162.082 52.4316ZM166.109 48.7227L166.543 44.4688H170.914V45.4707H167.463L167.205 47.7969C167.623 47.5508 168.098 47.4277 168.629 47.4277C169.406 47.4277 170.023 47.6855 170.48 48.2012C170.938 48.7129 171.166 49.4062 171.166 50.2812C171.166 51.1602 170.928 51.8535 170.451 52.3613C169.979 52.8652 169.316 53.1172 168.465 53.1172C167.711 53.1172 167.096 52.9082 166.619 52.4902C166.143 52.0723 165.871 51.4941 165.805 50.7559H166.83C166.896 51.2441 167.07 51.6133 167.352 51.8633C167.633 52.1094 168.004 52.2324 168.465 52.2324C168.969 52.2324 169.363 52.0605 169.648 51.7168C169.938 51.373 170.082 50.8984 170.082 50.293C170.082 49.7227 169.926 49.2656 169.613 48.9219C169.305 48.5742 168.893 48.4004 168.377 48.4004C167.904 48.4004 167.533 48.5039 167.264 48.7109L166.977 48.9453L166.109 48.7227ZM172.756 46.1094C172.756 45.5977 172.918 45.1758 173.242 44.8438C173.57 44.5117 173.99 44.3457 174.502 44.3457C175.021 44.3457 175.441 44.5137 175.762 44.8496C176.086 45.1816 176.248 45.6133 176.248 46.1445V46.5605C176.248 47.0762 176.084 47.498 175.756 47.8262C175.432 48.1504 175.018 48.3125 174.514 48.3125C174.006 48.3125 173.586 48.1504 173.254 47.8262C172.922 47.498 172.756 47.0625 172.756 46.5195V46.1094ZM173.564 46.5605C173.564 46.8652 173.65 47.1172 173.822 47.3164C173.994 47.5117 174.225 47.6094 174.514 47.6094C174.791 47.6094 175.014 47.5137 175.182 47.3223C175.354 47.1309 175.439 46.8691 175.439 46.5371V46.1094C175.439 45.8047 175.355 45.5527 175.188 45.3535C175.02 45.1543 174.791 45.0547 174.502 45.0547C174.213 45.0547 173.984 45.1543 173.816 45.3535C173.648 45.5527 173.564 45.8125 173.564 46.1328V46.5605ZM176.91 50.9082C176.91 50.3965 177.072 49.9766 177.396 49.6484C177.725 49.3164 178.145 49.1504 178.656 49.1504C179.168 49.1504 179.588 49.3145 179.916 49.6426C180.244 49.9707 180.408 50.4062 180.408 50.9492V51.3652C180.408 51.877 180.244 52.2988 179.916 52.6309C179.592 52.959 179.176 53.123 178.668 53.123C178.16 53.123 177.74 52.9609 177.408 52.6367C177.076 52.3086 176.91 51.873 176.91 51.3301V50.9082ZM177.719 51.3652C177.719 51.6738 177.805 51.9277 177.977 52.127C178.148 52.3223 178.379 52.4199 178.668 52.4199C178.949 52.4199 179.174 52.3242 179.342 52.1328C179.51 51.9375 179.594 51.6738 179.594 51.3418V50.9082C179.594 50.5996 179.508 50.3477 179.336 50.1523C179.168 49.957 178.941 49.8594 178.656 49.8594C178.379 49.8594 178.152 49.957 177.977 50.1523C177.805 50.3438 177.719 50.6035 177.719 50.9316V51.3652ZM174.76 52.3555L174.145 51.9688L178.311 45.3008L178.926 45.6875L174.76 52.3555Z" fill="#264F70"/>
<path d="M59.2852 50.1348H60.4688V51.0195H59.2852V53H58.1953V51.0195H54.3105V50.3809L58.1309 44.4688H59.2852V50.1348ZM55.541 50.1348H58.1953V45.9512L58.0664 46.1855L55.541 50.1348ZM62.082 52.4316C62.082 52.2441 62.1367 52.0879 62.2461 51.9629C62.3594 51.8379 62.5273 51.7754 62.75 51.7754C62.9727 51.7754 63.1406 51.8379 63.2539 51.9629C63.3711 52.0879 63.4297 52.2441 63.4297 52.4316C63.4297 52.6113 63.3711 52.7617 63.2539 52.8828C63.1406 53.0039 62.9727 53.0645 62.75 53.0645C62.5273 53.0645 62.3594 53.0039 62.2461 52.8828C62.1367 52.7617 62.082 52.6113 62.082 52.4316ZM66.1094 48.7227L66.543 44.4688H70.9141V45.4707H67.4629L67.2051 47.7969C67.623 47.5508 68.0977 47.4277 68.6289 47.4277C69.4062 47.4277 70.0234 47.6855 70.4805 48.2012C70.9375 48.7129 71.166 49.4062 71.166 50.2812C71.166 51.1602 70.9277 51.8535 70.4512 52.3613C69.9785 52.8652 69.3164 53.1172 68.4648 53.1172C67.7109 53.1172 67.0957 52.9082 66.6191 52.4902C66.1426 52.0723 65.8711 51.4941 65.8047 50.7559H66.8301C66.8965 51.2441 67.0703 51.6133 67.3516 51.8633C67.6328 52.1094 68.0039 52.2324 68.4648 52.2324C68.9688 52.2324 69.3633 52.0605 69.6484 51.7168C69.9375 51.373 70.082 50.8984 70.082 50.293C70.082 49.7227 69.9258 49.2656 69.6133 48.9219C69.3047 48.5742 68.8926 48.4004 68.377 48.4004C67.9043 48.4004 67.5332 48.5039 67.2637 48.7109L66.9766 48.9453L66.1094 48.7227ZM72.7559 46.1094C72.7559 45.5977 72.918 45.1758 73.2422 44.8438C73.5703 44.5117 73.9902 44.3457 74.502 44.3457C75.0215 44.3457 75.4414 44.5137 75.7617 44.8496C76.0859 45.1816 76.248 45.6133 76.248 46.1445V46.5605C76.248 47.0762 76.084 47.498 75.7559 47.8262C75.4316 48.1504 75.0176 48.3125 74.5137 48.3125C74.0059 48.3125 73.5859 48.1504 73.2539 47.8262C72.9219 47.498 72.7559 47.0625 72.7559 46.5195V46.1094ZM73.5645 46.5605C73.5645 46.8652 73.6504 47.1172 73.8223 47.3164C73.9941 47.5117 74.2246 47.6094 74.5137 47.6094C74.791 47.6094 75.0137 47.5137 75.1816 47.3223C75.3535 47.1309 75.4395 46.8691 75.4395 46.5371V46.1094C75.4395 45.8047 75.3555 45.5527 75.1875 45.3535C75.0195 45.1543 74.791 45.0547 74.502 45.0547C74.2129 45.0547 73.9844 45.1543 73.8164 45.3535C73.6484 45.5527 73.5645 45.8125 73.5645 46.1328V46.5605ZM76.9102 50.9082C76.9102 50.3965 77.0723 49.9766 77.3965 49.6484C77.7246 49.3164 78.1445 49.1504 78.6562 49.1504C79.168 49.1504 79.5879 49.3145 79.916 49.6426C80.2441 49.9707 80.4082 50.4062 80.4082 50.9492V51.3652C80.4082 51.877 80.2441 52.2988 79.916 52.6309C79.5918 52.959 79.1758 53.123 78.668 53.123C78.1602 53.123 77.7402 52.9609 77.4082 52.6367C77.0762 52.3086 76.9102 51.873 76.9102 51.3301V50.9082ZM77.7188 51.3652C77.7188 51.6738 77.8047 51.9277 77.9766 52.127C78.1484 52.3223 78.3789 52.4199 78.668 52.4199C78.9492 52.4199 79.1738 52.3242 79.3418 52.1328C79.5098 51.9375 79.5938 51.6738 79.5938 51.3418V50.9082C79.5938 50.5996 79.5078 50.3477 79.3359 50.1523C79.168 49.957 78.9414 49.8594 78.6562 49.8594C78.3789 49.8594 78.1523 49.957 77.9766 50.1523C77.8047 50.3438 77.7188 50.6035 77.7188 50.9316V51.3652ZM74.7598 52.3555L74.1445 51.9688L78.3105 45.3008L78.9258 45.6875L74.7598 52.3555Z" fill="#264F70"/>
<path d="M117 26.6865C117.815 25.7129 119.16 24.9785 121.035 24.4835C122.893 23.9939 125.355 23.7492 128.419 23.7492H133.285C137.247 23.7492 139.227 23.1661 139.227 22H142.773C142.773 23.1661 144.745 23.7492 148.69 23.7492H153.776C156.76 23.7602 159.164 24.005 160.99 24.4835C162.832 24.9675 164.169 25.7019 165 26.6865L162.188 27C161.096 25.8504 158.251 25.2756 153.654 25.2756H148.715C145.014 25.2756 142.439 24.8163 140.988 23.8977C139.521 24.8163 136.921 25.2756 133.187 25.2756H128.15C123.667 25.2921 120.888 25.8669 119.812 27L117 26.6865Z" fill="#264F70"/>
<path d="M64 26.6865C64.8321 25.7129 66.205 24.9785 68.1187 24.4835C70.0158 23.9939 72.5286 23.7492 75.6572 23.7492H80.6246C84.6684 23.7492 86.6903 23.1661 86.6903 22H90.3097C90.3097 23.1661 92.3233 23.7492 96.3505 23.7492H101.543C104.588 23.7602 107.042 24.005 108.906 24.4835C110.787 24.9675 112.151 25.7019 113 26.6865L110.129 27C109.014 25.8504 106.111 25.2756 101.418 25.2756H96.3754C92.5979 25.2756 89.9686 24.8163 88.4875 23.8977C86.9898 24.8163 84.3355 25.2756 80.5247 25.2756H75.3826C70.8062 25.2921 67.9689 25.8669 66.8706 27L64 26.6865Z" fill="#264F70"/>
<path d="M74.0762 13.8184H71.2168V12.9336H74.0762V13.8184ZM80.875 13.3613C80.875 14.6309 80.6582 15.5742 80.2246 16.1914C79.791 16.8086 79.1133 17.1172 78.1914 17.1172C77.2812 17.1172 76.6074 16.8164 76.1699 16.2148C75.7324 15.6094 75.5059 14.707 75.4902 13.5078V12.0605C75.4902 10.8066 75.707 9.875 76.1406 9.26562C76.5742 8.65625 77.2539 8.35156 78.1797 8.35156C79.0977 8.35156 79.7734 8.64648 80.207 9.23633C80.6406 9.82227 80.8633 10.7285 80.875 11.9551V13.3613ZM79.791 11.8789C79.791 10.9609 79.6621 10.293 79.4043 9.875C79.1465 9.45312 78.7383 9.24219 78.1797 9.24219C77.625 9.24219 77.2207 9.45117 76.9668 9.86914C76.7129 10.2871 76.582 10.9297 76.5742 11.7969V13.5312C76.5742 14.4531 76.707 15.1348 76.9727 15.5762C77.2422 16.0137 77.6484 16.2324 78.1914 16.2324C78.7266 16.2324 79.123 16.0254 79.3809 15.6113C79.6426 15.1973 79.7793 14.5449 79.791 13.6543V11.8789ZM82.8984 16.4316C82.8984 16.2441 82.9531 16.0879 83.0625 15.9629C83.1758 15.8379 83.3438 15.7754 83.5664 15.7754C83.7891 15.7754 83.957 15.8379 84.0703 15.9629C84.1875 16.0879 84.2461 16.2441 84.2461 16.4316C84.2461 16.6113 84.1875 16.7617 84.0703 16.8828C83.957 17.0039 83.7891 17.0645 83.5664 17.0645C83.3438 17.0645 83.1758 17.0039 83.0625 16.8828C82.9531 16.7617 82.8984 16.6113 82.8984 16.4316ZM86.9258 12.7227L87.3594 8.46875H91.7305V9.4707H88.2793L88.0215 11.7969C88.4395 11.5508 88.9141 11.4277 89.4453 11.4277C90.2227 11.4277 90.8398 11.6855 91.2969 12.2012C91.7539 12.7129 91.9824 13.4062 91.9824 14.2812C91.9824 15.1602 91.7441 15.8535 91.2676 16.3613C90.7949 16.8652 90.1328 17.1172 89.2812 17.1172C88.5273 17.1172 87.9121 16.9082 87.4355 16.4902C86.959 16.0723 86.6875 15.4941 86.6211 14.7559H87.6465C87.7129 15.2441 87.8867 15.6133 88.168 15.8633C88.4492 16.1094 88.8203 16.2324 89.2812 16.2324C89.7852 16.2324 90.1797 16.0605 90.4648 15.7168C90.7539 15.373 90.8984 14.8984 90.8984 14.293C90.8984 13.7227 90.7422 13.2656 90.4297 12.9219C90.1211 12.5742 89.709 12.4004 89.1934 12.4004C88.7207 12.4004 88.3496 12.5039 88.0801 12.7109L87.793 12.9453L86.9258 12.7227ZM99.1328 13.9004C99.1328 14.8652 98.9121 15.6426 98.4707 16.2324C98.0293 16.8223 97.4316 17.1172 96.6777 17.1172C95.9082 17.1172 95.3027 16.873 94.8613 16.3848V19.4375H93.7773V10.6602H94.7676L94.8203 11.3633C95.2617 10.8164 95.875 10.543 96.6602 10.543C97.4219 10.543 98.0234 10.8301 98.4648 11.4043C98.9102 11.9785 99.1328 12.7773 99.1328 13.8008V13.9004ZM98.0488 13.7773C98.0488 13.0625 97.8965 12.498 97.5918 12.084C97.2871 11.6699 96.8691 11.4629 96.3379 11.4629C95.6816 11.4629 95.1895 11.7539 94.8613 12.3359V15.3652C95.1855 15.9434 95.6816 16.2324 96.3496 16.2324C96.8691 16.2324 97.2812 16.0273 97.5859 15.6172C97.8945 15.2031 98.0488 14.5898 98.0488 13.7773ZM106.371 13.9004C106.371 14.8652 106.15 15.6426 105.709 16.2324C105.268 16.8223 104.67 17.1172 103.916 17.1172C103.146 17.1172 102.541 16.873 102.1 16.3848V19.4375H101.016V10.6602H102.006L102.059 11.3633C102.5 10.8164 103.113 10.543 103.898 10.543C104.66 10.543 105.262 10.8301 105.703 11.4043C106.148 11.9785 106.371 12.7773 106.371 13.8008V13.9004ZM105.287 13.7773C105.287 13.0625 105.135 12.498 104.83 12.084C104.525 11.6699 104.107 11.4629 103.576 11.4629C102.92 11.4629 102.428 11.7539 102.1 12.3359V15.3652C102.424 15.9434 102.92 16.2324 103.588 16.2324C104.107 16.2324 104.52 16.0273 104.824 15.6172C105.133 15.2031 105.287 14.5898 105.287 13.7773Z" fill="#264F70"/>
<path d="M126.926 12.4238H129.305V13.4492H126.926V16.1445H125.836V13.4492H123.457V12.4238H125.836V9.93359H126.926V12.4238ZM136.367 13.3613C136.367 14.6309 136.15 15.5742 135.717 16.1914C135.283 16.8086 134.605 17.1172 133.684 17.1172C132.773 17.1172 132.1 16.8164 131.662 16.2148C131.225 15.6094 130.998 14.707 130.982 13.5078V12.0605C130.982 10.8066 131.199 9.875 131.633 9.26562C132.066 8.65625 132.746 8.35156 133.672 8.35156C134.59 8.35156 135.266 8.64648 135.699 9.23633C136.133 9.82227 136.355 10.7285 136.367 11.9551V13.3613ZM135.283 11.8789C135.283 10.9609 135.154 10.293 134.896 9.875C134.639 9.45312 134.23 9.24219 133.672 9.24219C133.117 9.24219 132.713 9.45117 132.459 9.86914C132.205 10.2871 132.074 10.9297 132.066 11.7969V13.5312C132.066 14.4531 132.199 15.1348 132.465 15.5762C132.734 16.0137 133.141 16.2324 133.684 16.2324C134.219 16.2324 134.615 16.0254 134.873 15.6113C135.135 15.1973 135.271 14.5449 135.283 13.6543V11.8789ZM138.391 16.4316C138.391 16.2441 138.445 16.0879 138.555 15.9629C138.668 15.8379 138.836 15.7754 139.059 15.7754C139.281 15.7754 139.449 15.8379 139.562 15.9629C139.68 16.0879 139.738 16.2441 139.738 16.4316C139.738 16.6113 139.68 16.7617 139.562 16.8828C139.449 17.0039 139.281 17.0645 139.059 17.0645C138.836 17.0645 138.668 17.0039 138.555 16.8828C138.445 16.7617 138.391 16.6113 138.391 16.4316ZM142.418 12.7227L142.852 8.46875H147.223V9.4707H143.771L143.514 11.7969C143.932 11.5508 144.406 11.4277 144.938 11.4277C145.715 11.4277 146.332 11.6855 146.789 12.2012C147.246 12.7129 147.475 13.4062 147.475 14.2812C147.475 15.1602 147.236 15.8535 146.76 16.3613C146.287 16.8652 145.625 17.1172 144.773 17.1172C144.02 17.1172 143.404 16.9082 142.928 16.4902C142.451 16.0723 142.18 15.4941 142.113 14.7559H143.139C143.205 15.2441 143.379 15.6133 143.66 15.8633C143.941 16.1094 144.312 16.2324 144.773 16.2324C145.277 16.2324 145.672 16.0605 145.957 15.7168C146.246 15.373 146.391 14.8984 146.391 14.293C146.391 13.7227 146.234 13.2656 145.922 12.9219C145.613 12.5742 145.201 12.4004 144.686 12.4004C144.213 12.4004 143.842 12.5039 143.572 12.7109L143.285 12.9453L142.418 12.7227ZM154.625 13.9004C154.625 14.8652 154.404 15.6426 153.963 16.2324C153.521 16.8223 152.924 17.1172 152.17 17.1172C151.4 17.1172 150.795 16.873 150.354 16.3848V19.4375H149.27V10.6602H150.26L150.312 11.3633C150.754 10.8164 151.367 10.543 152.152 10.543C152.914 10.543 153.516 10.8301 153.957 11.4043C154.402 11.9785 154.625 12.7773 154.625 13.8008V13.9004ZM153.541 13.7773C153.541 13.0625 153.389 12.498 153.084 12.084C152.779 11.6699 152.361 11.4629 151.83 11.4629C151.174 11.4629 150.682 11.7539 150.354 12.3359V15.3652C150.678 15.9434 151.174 16.2324 151.842 16.2324C152.361 16.2324 152.773 16.0273 153.078 15.6172C153.387 15.2031 153.541 14.5898 153.541 13.7773ZM161.863 13.9004C161.863 14.8652 161.643 15.6426 161.201 16.2324C160.76 16.8223 160.162 17.1172 159.408 17.1172C158.639 17.1172 158.033 16.873 157.592 16.3848V19.4375H156.508V10.6602H157.498L157.551 11.3633C157.992 10.8164 158.605 10.543 159.391 10.543C160.152 10.543 160.754 10.8301 161.195 11.4043C161.641 11.9785 161.863 12.7773 161.863 13.8008V13.9004ZM160.779 13.7773C160.779 13.0625 160.627 12.498 160.322 12.084C160.018 11.6699 159.6 11.4629 159.068 11.4629C158.412 11.4629 157.92 11.7539 157.592 12.3359V15.3652C157.916 15.9434 158.412 16.2324 159.08 16.2324C159.6 16.2324 160.012 16.0273 160.316 15.6172C160.625 15.2031 160.779 14.5898 160.779 13.7773Z" fill="#264F70"/>
</svg>
