<svg width="235" height="80" viewBox="0 0 235 80" fill="none" xmlns="http://www.w3.org/2000/svg">
<path d="M235 43L225 37.2265L225 48.7735L235 43ZM29 44L226 44L226 42L29 42L29 44Z" fill="#264F70"/>
<line x1="170.5" y1="37" x2="170.5" y2="43" stroke="#264F70"/>
<line x1="117.5" y1="43" x2="117.5" y2="49" stroke="#264F70"/>
<path d="M97.6582 60.293C97.5527 61.1953 97.2188 61.8926 96.6562 62.3848C96.0977 62.873 95.3535 63.1172 94.4238 63.1172C93.416 63.1172 92.6074 62.7559 91.998 62.0332C91.3926 61.3105 91.0898 60.3438 91.0898 59.1328V58.3125C91.0898 57.5195 91.2305 56.8223 91.5117 56.2207C91.7969 55.6191 92.1992 55.1582 92.7188 54.8379C93.2383 54.5137 93.8398 54.3516 94.5234 54.3516C95.4297 54.3516 96.1562 54.6055 96.7031 55.1133C97.25 55.6172 97.5684 56.3164 97.6582 57.2109H96.5273C96.4297 56.5312 96.2168 56.0391 95.8887 55.7344C95.5645 55.4297 95.1094 55.2773 94.5234 55.2773C93.8047 55.2773 93.2402 55.543 92.8301 56.0742C92.4238 56.6055 92.2207 57.3613 92.2207 58.3418V59.168C92.2207 60.0938 92.4141 60.8301 92.8008 61.377C93.1875 61.9238 93.7285 62.1973 94.4238 62.1973C95.0488 62.1973 95.5273 62.0566 95.8594 61.7754C96.1953 61.4902 96.418 60.9961 96.5273 60.293H97.6582ZM103.443 63C103.381 62.875 103.33 62.6523 103.291 62.332C102.787 62.8555 102.186 63.1172 101.486 63.1172C100.861 63.1172 100.348 62.9414 99.9453 62.5898C99.5469 62.2344 99.3477 61.7852 99.3477 61.2422C99.3477 60.582 99.5977 60.0703 100.098 59.707C100.602 59.3398 101.309 59.1562 102.219 59.1562H103.273V58.6582C103.273 58.2793 103.16 57.9785 102.934 57.7559C102.707 57.5293 102.373 57.416 101.932 57.416C101.545 57.416 101.221 57.5137 100.959 57.709C100.697 57.9043 100.566 58.1406 100.566 58.418H99.4766C99.4766 58.1016 99.5879 57.7969 99.8105 57.5039C100.037 57.207 100.342 56.9727 100.725 56.8008C101.111 56.6289 101.535 56.543 101.996 56.543C102.727 56.543 103.299 56.7266 103.713 57.0938C104.127 57.457 104.342 57.959 104.357 58.5996V61.5176C104.357 62.0996 104.432 62.5625 104.58 62.9062V63H103.443ZM101.645 62.1738C101.984 62.1738 102.307 62.0859 102.611 61.9102C102.916 61.7344 103.137 61.5059 103.273 61.2246V59.9238H102.424C101.096 59.9238 100.432 60.3125 100.432 61.0898C100.432 61.4297 100.545 61.6953 100.771 61.8867C100.998 62.0781 101.289 62.1738 101.645 62.1738ZM111.912 59.9004C111.912 60.8652 111.691 61.6426 111.25 62.2324C110.809 62.8223 110.211 63.1172 109.457 63.1172C108.688 63.1172 108.082 62.873 107.641 62.3848V65.4375H106.557V56.6602H107.547L107.6 57.3633C108.041 56.8164 108.654 56.543 109.439 56.543C110.201 56.543 110.803 56.8301 111.244 57.4043C111.689 57.9785 111.912 58.7773 111.912 59.8008V59.9004ZM110.828 59.7773C110.828 59.0625 110.676 58.498 110.371 58.084C110.066 57.6699 109.648 57.4629 109.117 57.4629C108.461 57.4629 107.969 57.7539 107.641 58.3359V61.3652C107.965 61.9434 108.461 62.2324 109.129 62.2324C109.648 62.2324 110.061 62.0273 110.365 61.6172C110.674 61.2031 110.828 60.5898 110.828 59.7773ZM115.266 55.125V56.6602H116.449V57.498H115.266V61.4297C115.266 61.6836 115.318 61.875 115.424 62.0039C115.529 62.1289 115.709 62.1914 115.963 62.1914C116.088 62.1914 116.26 62.168 116.479 62.1211V63C116.193 63.0781 115.916 63.1172 115.646 63.1172C115.162 63.1172 114.797 62.9707 114.551 62.6777C114.305 62.3848 114.182 61.9688 114.182 61.4297V57.498H113.027V56.6602H114.182V55.125H115.266ZM122.135 62.373C121.713 62.8691 121.094 63.1172 120.277 63.1172C119.602 63.1172 119.086 62.9219 118.73 62.5312C118.379 62.1367 118.201 61.5547 118.197 60.7852V56.6602H119.281V60.7559C119.281 61.7168 119.672 62.1973 120.453 62.1973C121.281 62.1973 121.832 61.8887 122.105 61.2715V56.6602H123.189V63H122.158L122.135 62.373ZM128.406 57.6328C128.242 57.6055 128.064 57.5918 127.873 57.5918C127.162 57.5918 126.68 57.8945 126.426 58.5V63H125.342V56.6602H126.396L126.414 57.3926C126.77 56.8262 127.273 56.543 127.926 56.543C128.137 56.543 128.297 56.5703 128.406 56.625V57.6328ZM132.422 63.1172C131.562 63.1172 130.863 62.8359 130.324 62.2734C129.785 61.707 129.516 60.9512 129.516 60.0059V59.8066C129.516 59.1777 129.635 58.6172 129.873 58.125C130.115 57.6289 130.451 57.2422 130.881 56.9648C131.314 56.6836 131.783 56.543 132.287 56.543C133.111 56.543 133.752 56.8145 134.209 57.3574C134.666 57.9004 134.895 58.6777 134.895 59.6895V60.1406H130.6C130.615 60.7656 130.797 61.2715 131.145 61.6582C131.496 62.041 131.941 62.2324 132.48 62.2324C132.863 62.2324 133.188 62.1543 133.453 61.998C133.719 61.8418 133.951 61.6348 134.15 61.377L134.812 61.8926C134.281 62.709 133.484 63.1172 132.422 63.1172ZM132.287 57.4336C131.85 57.4336 131.482 57.5938 131.186 57.9141C130.889 58.2305 130.705 58.6758 130.635 59.25H133.811V59.168C133.779 58.6172 133.631 58.1914 133.365 57.8906C133.1 57.5859 132.74 57.4336 132.287 57.4336ZM136.391 59.7773C136.391 58.8047 136.621 58.0234 137.082 57.4336C137.543 56.8398 138.146 56.543 138.893 56.543C139.635 56.543 140.223 56.7969 140.656 57.3047V54H141.74V63H140.744L140.691 62.3203C140.258 62.8516 139.654 63.1172 138.881 63.1172C138.146 63.1172 137.547 62.8164 137.082 62.2148C136.621 61.6133 136.391 60.8281 136.391 59.8594V59.7773ZM137.475 59.9004C137.475 60.6191 137.623 61.1816 137.92 61.5879C138.217 61.9941 138.627 62.1973 139.15 62.1973C139.838 62.1973 140.34 61.8887 140.656 61.2715V58.3594C140.332 57.7617 139.834 57.4629 139.162 57.4629C138.631 57.4629 138.217 57.668 137.92 58.0781C137.623 58.4883 137.475 59.0957 137.475 59.9004ZM101.635 71.6328C101.471 71.6055 101.293 71.5918 101.102 71.5918C100.391 71.5918 99.9082 71.8945 99.6543 72.5V77H98.5703V70.6602H99.625L99.6426 71.3926C99.998 70.8262 100.502 70.543 101.154 70.543C101.365 70.543 101.525 70.5703 101.635 70.625V71.6328ZM105.65 77.1172C104.791 77.1172 104.092 76.8359 103.553 76.2734C103.014 75.707 102.744 74.9512 102.744 74.0059V73.8066C102.744 73.1777 102.863 72.6172 103.102 72.125C103.344 71.6289 103.68 71.2422 104.109 70.9648C104.543 70.6836 105.012 70.543 105.516 70.543C106.34 70.543 106.98 70.8145 107.438 71.3574C107.895 71.9004 108.123 72.6777 108.123 73.6895V74.1406H103.828C103.844 74.7656 104.025 75.2715 104.373 75.6582C104.725 76.041 105.17 76.2324 105.709 76.2324C106.092 76.2324 106.416 76.1543 106.682 75.998C106.947 75.8418 107.18 75.6348 107.379 75.377L108.041 75.8926C107.51 76.709 106.713 77.1172 105.65 77.1172ZM105.516 71.4336C105.078 71.4336 104.711 71.5938 104.414 71.9141C104.117 72.2305 103.934 72.6758 103.863 73.25H107.039V73.168C107.008 72.6172 106.859 72.1914 106.594 71.8906C106.328 71.5859 105.969 71.4336 105.516 71.4336ZM110.416 77V71.498H109.414V70.6602H110.416V70.0098C110.416 69.3301 110.598 68.8047 110.961 68.4336C111.324 68.0625 111.838 67.877 112.502 67.877C112.752 67.877 113 67.9102 113.246 67.9766L113.188 68.8555C113.004 68.8203 112.809 68.8027 112.602 68.8027C112.25 68.8027 111.979 68.9062 111.787 69.1133C111.596 69.3164 111.5 69.6094 111.5 69.9922V70.6602H112.854V71.498H111.5V77H110.416ZM118.469 76.373C118.047 76.8691 117.428 77.1172 116.611 77.1172C115.936 77.1172 115.42 76.9219 115.064 76.5312C114.713 76.1367 114.535 75.5547 114.531 74.7852V70.6602H115.615V74.7559C115.615 75.7168 116.006 76.1973 116.787 76.1973C117.615 76.1973 118.166 75.8887 118.439 75.2715V70.6602H119.523V77H118.492L118.469 76.373ZM122.701 70.6602L122.736 71.457C123.221 70.8477 123.854 70.543 124.635 70.543C125.975 70.543 126.65 71.2988 126.662 72.8105V77H125.578V72.8047C125.574 72.3477 125.469 72.0098 125.262 71.791C125.059 71.5723 124.74 71.4629 124.307 71.4629C123.955 71.4629 123.646 71.5566 123.381 71.7441C123.115 71.9316 122.908 72.1777 122.76 72.4824V77H121.676V70.6602H122.701ZM128.533 73.7773C128.533 72.8047 128.764 72.0234 129.225 71.4336C129.686 70.8398 130.289 70.543 131.035 70.543C131.777 70.543 132.365 70.7969 132.799 71.3047V68H133.883V77H132.887L132.834 76.3203C132.4 76.8516 131.797 77.1172 131.023 77.1172C130.289 77.1172 129.689 76.8164 129.225 76.2148C128.764 75.6133 128.533 74.8281 128.533 73.8594V73.7773ZM129.617 73.9004C129.617 74.6191 129.766 75.1816 130.062 75.5879C130.359 75.9941 130.77 76.1973 131.293 76.1973C131.98 76.1973 132.482 75.8887 132.799 75.2715V72.3594C132.475 71.7617 131.977 71.4629 131.305 71.4629C130.773 71.4629 130.359 71.668 130.062 72.0781C129.766 72.4883 129.617 73.0957 129.617 73.9004Z" fill="#264F70"/>
<path d="M2.57227 59.6602V63H1.44727V54.4688H4.59375C5.52734 54.4688 6.25781 54.707 6.78516 55.1836C7.31641 55.6602 7.58203 56.291 7.58203 57.0762C7.58203 57.9043 7.32227 58.543 6.80273 58.9922C6.28711 59.4375 5.54688 59.6602 4.58203 59.6602H2.57227ZM2.57227 58.7402H4.59375C5.19531 58.7402 5.65625 58.5996 5.97656 58.3184C6.29688 58.0332 6.45703 57.623 6.45703 57.0879C6.45703 56.5801 6.29688 56.1738 5.97656 55.8691C5.65625 55.5645 5.2168 55.4062 4.6582 55.3945H2.57227V58.7402ZM13.2617 62.373C12.8398 62.8691 12.2207 63.1172 11.4043 63.1172C10.7285 63.1172 10.2129 62.9219 9.85742 62.5312C9.50586 62.1367 9.32812 61.5547 9.32422 60.7852V56.6602H10.4082V60.7559C10.4082 61.7168 10.7988 62.1973 11.5801 62.1973C12.4082 62.1973 12.959 61.8887 13.2324 61.2715V56.6602H14.3164V63H13.2852L13.2617 62.373ZM19.5332 57.6328C19.3691 57.6055 19.1914 57.5918 19 57.5918C18.2891 57.5918 17.8066 57.8945 17.5527 58.5V63H16.4688V56.6602H17.5234L17.541 57.3926C17.8965 56.8262 18.4004 56.543 19.0527 56.543C19.2637 56.543 19.4238 56.5703 19.5332 56.625V57.6328ZM23.4609 62.2324C23.8477 62.2324 24.1855 62.1152 24.4746 61.8809C24.7637 61.6465 24.9238 61.3535 24.9551 61.002H25.9805C25.9609 61.3652 25.8359 61.7109 25.6055 62.0391C25.375 62.3672 25.0664 62.6289 24.6797 62.8242C24.2969 63.0195 23.8906 63.1172 23.4609 63.1172C22.5977 63.1172 21.9102 62.8301 21.3984 62.2559C20.8906 61.6777 20.6367 60.8887 20.6367 59.8887V59.707C20.6367 59.0898 20.75 58.541 20.9766 58.0605C21.2031 57.5801 21.5273 57.207 21.9492 56.9414C22.375 56.6758 22.877 56.543 23.4551 56.543C24.166 56.543 24.7559 56.7559 25.2246 57.1816C25.6973 57.6074 25.9492 58.1602 25.9805 58.8398H24.9551C24.9238 58.4297 24.7676 58.0938 24.4863 57.832C24.209 57.5664 23.8652 57.4336 23.4551 57.4336C22.9043 57.4336 22.4766 57.6328 22.1719 58.0312C21.8711 58.4258 21.7207 58.998 21.7207 59.748V59.9531C21.7207 60.6836 21.8711 61.2461 22.1719 61.6406C22.4727 62.0352 22.9023 62.2324 23.4609 62.2324ZM28.7832 57.4277C29.2637 56.8379 29.8887 56.543 30.6582 56.543C31.998 56.543 32.6738 57.2988 32.6855 58.8105V63H31.6016V58.8047C31.5977 58.3477 31.4922 58.0098 31.2852 57.791C31.082 57.5723 30.7637 57.4629 30.3301 57.4629C29.9785 57.4629 29.6699 57.5566 29.4043 57.7441C29.1387 57.9316 28.9316 58.1777 28.7832 58.4824V63H27.6992V54H28.7832V57.4277ZM38.7227 63C38.6602 62.875 38.6094 62.6523 38.5703 62.332C38.0664 62.8555 37.4648 63.1172 36.7656 63.1172C36.1406 63.1172 35.627 62.9414 35.2246 62.5898C34.8262 62.2344 34.627 61.7852 34.627 61.2422C34.627 60.582 34.877 60.0703 35.377 59.707C35.8809 59.3398 36.5879 59.1562 37.498 59.1562H38.5527V58.6582C38.5527 58.2793 38.4395 57.9785 38.2129 57.7559C37.9863 57.5293 37.6523 57.416 37.2109 57.416C36.8242 57.416 36.5 57.5137 36.2383 57.709C35.9766 57.9043 35.8457 58.1406 35.8457 58.418H34.7559C34.7559 58.1016 34.8672 57.7969 35.0898 57.5039C35.3164 57.207 35.6211 56.9727 36.0039 56.8008C36.3906 56.6289 36.8145 56.543 37.2754 56.543C38.0059 56.543 38.5781 56.7266 38.9922 57.0938C39.4062 57.457 39.6211 57.959 39.6367 58.5996V61.5176C39.6367 62.0996 39.7109 62.5625 39.8594 62.9062V63H38.7227ZM36.9238 62.1738C37.2637 62.1738 37.5859 62.0859 37.8906 61.9102C38.1953 61.7344 38.416 61.5059 38.5527 61.2246V59.9238H37.7031C36.375 59.9238 35.7109 60.3125 35.7109 61.0898C35.7109 61.4297 35.8242 61.6953 36.0508 61.8867C36.2773 62.0781 36.5684 62.1738 36.9238 62.1738ZM45.5273 61.3184C45.5273 61.0254 45.416 60.7988 45.1934 60.6387C44.9746 60.4746 44.5898 60.334 44.0391 60.2168C43.4922 60.0996 43.0566 59.959 42.7324 59.7949C42.4121 59.6309 42.1738 59.4355 42.0176 59.209C41.8652 58.9824 41.7891 58.7129 41.7891 58.4004C41.7891 57.8809 42.0078 57.4414 42.4453 57.082C42.8867 56.7227 43.4492 56.543 44.1328 56.543C44.8516 56.543 45.4336 56.7285 45.8789 57.0996C46.3281 57.4707 46.5527 57.9453 46.5527 58.5234H45.4629C45.4629 58.2266 45.3359 57.9707 45.082 57.7559C44.832 57.541 44.5156 57.4336 44.1328 57.4336C43.7383 57.4336 43.4297 57.5195 43.207 57.6914C42.9844 57.8633 42.873 58.0879 42.873 58.3652C42.873 58.627 42.9766 58.8242 43.1836 58.957C43.3906 59.0898 43.7637 59.2168 44.3027 59.3379C44.8457 59.459 45.2852 59.6035 45.6211 59.7715C45.957 59.9395 46.2051 60.1426 46.3652 60.3809C46.5293 60.6152 46.6113 60.9023 46.6113 61.2422C46.6113 61.8086 46.3848 62.2637 45.9316 62.6074C45.4785 62.9473 44.8906 63.1172 44.168 63.1172C43.6602 63.1172 43.2109 63.0273 42.8203 62.8477C42.4297 62.668 42.123 62.418 41.9004 62.0977C41.6816 61.7734 41.5723 61.4238 41.5723 61.0488H42.6562C42.6758 61.4121 42.8203 61.7012 43.0898 61.916C43.3633 62.127 43.7227 62.2324 44.168 62.2324C44.5781 62.2324 44.9062 62.1504 45.1523 61.9863C45.4023 61.8184 45.5273 61.5957 45.5273 61.3184ZM51.1543 63.1172C50.2949 63.1172 49.5957 62.8359 49.0566 62.2734C48.5176 61.707 48.248 60.9512 48.248 60.0059V59.8066C48.248 59.1777 48.3672 58.6172 48.6055 58.125C48.8477 57.6289 49.1836 57.2422 49.6133 56.9648C50.0469 56.6836 50.5156 56.543 51.0195 56.543C51.8438 56.543 52.4844 56.8145 52.9414 57.3574C53.3984 57.9004 53.627 58.6777 53.627 59.6895V60.1406H49.332C49.3477 60.7656 49.5293 61.2715 49.877 61.6582C50.2285 62.041 50.6738 62.2324 51.2129 62.2324C51.5957 62.2324 51.9199 62.1543 52.1855 61.998C52.4512 61.8418 52.6836 61.6348 52.8828 61.377L53.5449 61.8926C53.0137 62.709 52.2168 63.1172 51.1543 63.1172ZM51.0195 57.4336C50.582 57.4336 50.2148 57.5938 49.918 57.9141C49.6211 58.2305 49.4375 58.6758 49.3672 59.25H52.543V59.168C52.5117 58.6172 52.3633 58.1914 52.0977 57.8906C51.832 57.5859 51.4727 57.4336 51.0195 57.4336ZM16.9902 77.1172C16.1309 77.1172 15.4316 76.8359 14.8926 76.2734C14.3535 75.707 14.084 74.9512 14.084 74.0059V73.8066C14.084 73.1777 14.2031 72.6172 14.4414 72.125C14.6836 71.6289 15.0195 71.2422 15.4492 70.9648C15.8828 70.6836 16.3516 70.543 16.8555 70.543C17.6797 70.543 18.3203 70.8145 18.7773 71.3574C19.2344 71.9004 19.4629 72.6777 19.4629 73.6895V74.1406H15.168C15.1836 74.7656 15.3652 75.2715 15.7129 75.6582C16.0645 76.041 16.5098 76.2324 17.0488 76.2324C17.4316 76.2324 17.7559 76.1543 18.0215 75.998C18.2871 75.8418 18.5195 75.6348 18.7188 75.377L19.3809 75.8926C18.8496 76.709 18.0527 77.1172 16.9902 77.1172ZM16.8555 71.4336C16.418 71.4336 16.0508 71.5938 15.7539 71.9141C15.457 72.2305 15.2734 72.6758 15.2031 73.25H18.3789V73.168C18.3477 72.6172 18.1992 72.1914 17.9336 71.8906C17.668 71.5859 17.3086 71.4336 16.8555 71.4336ZM23.2324 75.5293L24.8027 70.6602H25.9102L23.6367 77H22.8105L20.5137 70.6602H21.6211L23.2324 75.5293ZM30.002 77.1172C29.1426 77.1172 28.4434 76.8359 27.9043 76.2734C27.3652 75.707 27.0957 74.9512 27.0957 74.0059V73.8066C27.0957 73.1777 27.2148 72.6172 27.4531 72.125C27.6953 71.6289 28.0312 71.2422 28.4609 70.9648C28.8945 70.6836 29.3633 70.543 29.8672 70.543C30.6914 70.543 31.332 70.8145 31.7891 71.3574C32.2461 71.9004 32.4746 72.6777 32.4746 73.6895V74.1406H28.1797C28.1953 74.7656 28.377 75.2715 28.7246 75.6582C29.0762 76.041 29.5215 76.2324 30.0605 76.2324C30.4434 76.2324 30.7676 76.1543 31.0332 75.998C31.2988 75.8418 31.5312 75.6348 31.7305 75.377L32.3926 75.8926C31.8613 76.709 31.0645 77.1172 30.002 77.1172ZM29.8672 71.4336C29.4297 71.4336 29.0625 71.5938 28.7656 71.9141C28.4688 72.2305 28.2852 72.6758 28.2148 73.25H31.3906V73.168C31.3594 72.6172 31.2109 72.1914 30.9453 71.8906C30.6797 71.5859 30.3203 71.4336 29.8672 71.4336ZM35.2598 70.6602L35.2949 71.457C35.7793 70.8477 36.4121 70.543 37.1934 70.543C38.5332 70.543 39.209 71.2988 39.2207 72.8105V77H38.1367V72.8047C38.1328 72.3477 38.0273 72.0098 37.8203 71.791C37.6172 71.5723 37.2988 71.4629 36.8652 71.4629C36.5137 71.4629 36.2051 71.5566 35.9395 71.7441C35.6738 71.9316 35.4668 72.1777 35.3184 72.4824V77H34.2344V70.6602H35.2598ZM42.8262 69.125V70.6602H44.0098V71.498H42.8262V75.4297C42.8262 75.6836 42.8789 75.875 42.9844 76.0039C43.0898 76.1289 43.2695 76.1914 43.5234 76.1914C43.6484 76.1914 43.8203 76.168 44.0391 76.1211V77C43.7539 77.0781 43.4766 77.1172 43.207 77.1172C42.7227 77.1172 42.3574 76.9707 42.1113 76.6777C41.8652 76.3848 41.7422 75.9688 41.7422 75.4297V71.498H40.5879V70.6602H41.7422V69.125H42.8262Z" fill="#264F70"/>
<line x1="202.5" y1="37" x2="202.5" y2="49" stroke="#264F70"/>
<path d="M175.455 54.4688V60.2695C175.451 61.0742 175.197 61.7324 174.693 62.2441C174.193 62.7559 173.514 63.043 172.654 63.1055L172.355 63.1172C171.422 63.1172 170.678 62.8652 170.123 62.3613C169.568 61.8574 169.287 61.1641 169.279 60.2812V54.4688H170.393V60.2461C170.393 60.8633 170.562 61.3438 170.902 61.6875C171.242 62.0273 171.727 62.1973 172.355 62.1973C172.992 62.1973 173.479 62.0273 173.814 61.6875C174.154 61.3477 174.324 60.8691 174.324 60.252V54.4688H175.455ZM178.586 56.6602L178.621 57.457C179.105 56.8477 179.738 56.543 180.52 56.543C181.859 56.543 182.535 57.2988 182.547 58.8105V63H181.463V58.8047C181.459 58.3477 181.354 58.0098 181.146 57.791C180.943 57.5723 180.625 57.4629 180.191 57.4629C179.84 57.4629 179.531 57.5566 179.266 57.7441C179 57.9316 178.793 58.1777 178.645 58.4824V63H177.561V56.6602H178.586ZM187.225 62.2324C187.611 62.2324 187.949 62.1152 188.238 61.8809C188.527 61.6465 188.688 61.3535 188.719 61.002H189.744C189.725 61.3652 189.6 61.7109 189.369 62.0391C189.139 62.3672 188.83 62.6289 188.443 62.8242C188.061 63.0195 187.654 63.1172 187.225 63.1172C186.361 63.1172 185.674 62.8301 185.162 62.2559C184.654 61.6777 184.4 60.8887 184.4 59.8887V59.707C184.4 59.0898 184.514 58.541 184.74 58.0605C184.967 57.5801 185.291 57.207 185.713 56.9414C186.139 56.6758 186.641 56.543 187.219 56.543C187.93 56.543 188.52 56.7559 188.988 57.1816C189.461 57.6074 189.713 58.1602 189.744 58.8398H188.719C188.688 58.4297 188.531 58.0938 188.25 57.832C187.973 57.5664 187.629 57.4336 187.219 57.4336C186.668 57.4336 186.24 57.6328 185.936 58.0312C185.635 58.4258 185.484 58.998 185.484 59.748V59.9531C185.484 60.6836 185.635 61.2461 185.936 61.6406C186.236 62.0352 186.666 62.2324 187.225 62.2324ZM195.377 63C195.314 62.875 195.264 62.6523 195.225 62.332C194.721 62.8555 194.119 63.1172 193.42 63.1172C192.795 63.1172 192.281 62.9414 191.879 62.5898C191.48 62.2344 191.281 61.7852 191.281 61.2422C191.281 60.582 191.531 60.0703 192.031 59.707C192.535 59.3398 193.242 59.1562 194.152 59.1562H195.207V58.6582C195.207 58.2793 195.094 57.9785 194.867 57.7559C194.641 57.5293 194.307 57.416 193.865 57.416C193.479 57.416 193.154 57.5137 192.893 57.709C192.631 57.9043 192.5 58.1406 192.5 58.418H191.41C191.41 58.1016 191.521 57.7969 191.744 57.5039C191.971 57.207 192.275 56.9727 192.658 56.8008C193.045 56.6289 193.469 56.543 193.93 56.543C194.66 56.543 195.232 56.7266 195.646 57.0938C196.061 57.457 196.275 57.959 196.291 58.5996V61.5176C196.291 62.0996 196.365 62.5625 196.514 62.9062V63H195.377ZM193.578 62.1738C193.918 62.1738 194.24 62.0859 194.545 61.9102C194.85 61.7344 195.07 61.5059 195.207 61.2246V59.9238H194.357C193.029 59.9238 192.365 60.3125 192.365 61.0898C192.365 61.4297 192.479 61.6953 192.705 61.8867C192.932 62.0781 193.223 62.1738 193.578 62.1738ZM203.846 59.9004C203.846 60.8652 203.625 61.6426 203.184 62.2324C202.742 62.8223 202.145 63.1172 201.391 63.1172C200.621 63.1172 200.016 62.873 199.574 62.3848V65.4375H198.49V56.6602H199.48L199.533 57.3633C199.975 56.8164 200.588 56.543 201.373 56.543C202.135 56.543 202.736 56.8301 203.178 57.4043C203.623 57.9785 203.846 58.7773 203.846 59.8008V59.9004ZM202.762 59.7773C202.762 59.0625 202.609 58.498 202.305 58.084C202 57.6699 201.582 57.4629 201.051 57.4629C200.395 57.4629 199.902 57.7539 199.574 58.3359V61.3652C199.898 61.9434 200.395 62.2324 201.062 62.2324C201.582 62.2324 201.994 62.0273 202.299 61.6172C202.607 61.2031 202.762 60.5898 202.762 59.7773ZM207.199 55.125V56.6602H208.383V57.498H207.199V61.4297C207.199 61.6836 207.252 61.875 207.357 62.0039C207.463 62.1289 207.643 62.1914 207.896 62.1914C208.021 62.1914 208.193 62.168 208.412 62.1211V63C208.127 63.0781 207.85 63.1172 207.58 63.1172C207.096 63.1172 206.73 62.9707 206.484 62.6777C206.238 62.3848 206.115 61.9688 206.115 61.4297V57.498H204.961V56.6602H206.115V55.125H207.199ZM214.068 62.373C213.646 62.8691 213.027 63.1172 212.211 63.1172C211.535 63.1172 211.02 62.9219 210.664 62.5312C210.312 62.1367 210.135 61.5547 210.131 60.7852V56.6602H211.215V60.7559C211.215 61.7168 211.605 62.1973 212.387 62.1973C213.215 62.1973 213.766 61.8887 214.039 61.2715V56.6602H215.123V63H214.092L214.068 62.373ZM220.34 57.6328C220.176 57.6055 219.998 57.5918 219.807 57.5918C219.096 57.5918 218.613 57.8945 218.359 58.5V63H217.275V56.6602H218.33L218.348 57.3926C218.703 56.8262 219.207 56.543 219.859 56.543C220.07 56.543 220.23 56.5703 220.34 56.625V57.6328ZM224.355 63.1172C223.496 63.1172 222.797 62.8359 222.258 62.2734C221.719 61.707 221.449 60.9512 221.449 60.0059V59.8066C221.449 59.1777 221.568 58.6172 221.807 58.125C222.049 57.6289 222.385 57.2422 222.814 56.9648C223.248 56.6836 223.717 56.543 224.221 56.543C225.045 56.543 225.686 56.8145 226.143 57.3574C226.6 57.9004 226.828 58.6777 226.828 59.6895V60.1406H222.533C222.549 60.7656 222.73 61.2715 223.078 61.6582C223.43 62.041 223.875 62.2324 224.414 62.2324C224.797 62.2324 225.121 62.1543 225.387 61.998C225.652 61.8418 225.885 61.6348 226.084 61.377L226.746 61.8926C226.215 62.709 225.418 63.1172 224.355 63.1172ZM224.221 57.4336C223.783 57.4336 223.416 57.5938 223.119 57.9141C222.822 58.2305 222.639 58.6758 222.568 59.25H225.744V59.168C225.713 58.6172 225.564 58.1914 225.299 57.8906C225.033 57.5859 224.674 57.4336 224.221 57.4336ZM228.324 59.7773C228.324 58.8047 228.555 58.0234 229.016 57.4336C229.477 56.8398 230.08 56.543 230.826 56.543C231.568 56.543 232.156 56.7969 232.59 57.3047V54H233.674V63H232.678L232.625 62.3203C232.191 62.8516 231.588 63.1172 230.814 63.1172C230.08 63.1172 229.48 62.8164 229.016 62.2148C228.555 61.6133 228.324 60.8281 228.324 59.8594V59.7773ZM229.408 59.9004C229.408 60.6191 229.557 61.1816 229.854 61.5879C230.15 61.9941 230.561 62.1973 231.084 62.1973C231.771 62.1973 232.273 61.8887 232.59 61.2715V58.3594C232.266 57.7617 231.768 57.4629 231.096 57.4629C230.564 57.4629 230.15 57.668 229.854 58.0781C229.557 58.4883 229.408 59.0957 229.408 59.9004ZM186.885 71.6328C186.721 71.6055 186.543 71.5918 186.352 71.5918C185.641 71.5918 185.158 71.8945 184.904 72.5V77H183.82V70.6602H184.875L184.893 71.3926C185.248 70.8262 185.752 70.543 186.404 70.543C186.615 70.543 186.775 70.5703 186.885 70.625V71.6328ZM190.9 77.1172C190.041 77.1172 189.342 76.8359 188.803 76.2734C188.264 75.707 187.994 74.9512 187.994 74.0059V73.8066C187.994 73.1777 188.113 72.6172 188.352 72.125C188.594 71.6289 188.93 71.2422 189.359 70.9648C189.793 70.6836 190.262 70.543 190.766 70.543C191.59 70.543 192.23 70.8145 192.688 71.3574C193.145 71.9004 193.373 72.6777 193.373 73.6895V74.1406H189.078C189.094 74.7656 189.275 75.2715 189.623 75.6582C189.975 76.041 190.42 76.2324 190.959 76.2324C191.342 76.2324 191.666 76.1543 191.932 75.998C192.197 75.8418 192.43 75.6348 192.629 75.377L193.291 75.8926C192.76 76.709 191.963 77.1172 190.9 77.1172ZM190.766 71.4336C190.328 71.4336 189.961 71.5938 189.664 71.9141C189.367 72.2305 189.184 72.6758 189.113 73.25H192.289V73.168C192.258 72.6172 192.109 72.1914 191.844 71.8906C191.578 71.5859 191.219 71.4336 190.766 71.4336ZM195.666 77V71.498H194.664V70.6602H195.666V70.0098C195.666 69.3301 195.848 68.8047 196.211 68.4336C196.574 68.0625 197.088 67.877 197.752 67.877C198.002 67.877 198.25 67.9102 198.496 67.9766L198.438 68.8555C198.254 68.8203 198.059 68.8027 197.852 68.8027C197.5 68.8027 197.229 68.9062 197.037 69.1133C196.846 69.3164 196.75 69.6094 196.75 69.9922V70.6602H198.104V71.498H196.75V77H195.666ZM203.719 76.373C203.297 76.8691 202.678 77.1172 201.861 77.1172C201.186 77.1172 200.67 76.9219 200.314 76.5312C199.963 76.1367 199.785 75.5547 199.781 74.7852V70.6602H200.865V74.7559C200.865 75.7168 201.256 76.1973 202.037 76.1973C202.865 76.1973 203.416 75.8887 203.689 75.2715V70.6602H204.773V77H203.742L203.719 76.373ZM207.951 70.6602L207.986 71.457C208.471 70.8477 209.104 70.543 209.885 70.543C211.225 70.543 211.9 71.2988 211.912 72.8105V77H210.828V72.8047C210.824 72.3477 210.719 72.0098 210.512 71.791C210.309 71.5723 209.99 71.4629 209.557 71.4629C209.205 71.4629 208.896 71.5566 208.631 71.7441C208.365 71.9316 208.158 72.1777 208.01 72.4824V77H206.926V70.6602H207.951ZM213.783 73.7773C213.783 72.8047 214.014 72.0234 214.475 71.4336C214.936 70.8398 215.539 70.543 216.285 70.543C217.027 70.543 217.615 70.7969 218.049 71.3047V68H219.133V77H218.137L218.084 76.3203C217.65 76.8516 217.047 77.1172 216.273 77.1172C215.539 77.1172 214.939 76.8164 214.475 76.2148C214.014 75.6133 213.783 74.8281 213.783 73.8594V73.7773ZM214.867 73.9004C214.867 74.6191 215.016 75.1816 215.312 75.5879C215.609 75.9941 216.02 76.1973 216.543 76.1973C217.23 76.1973 217.732 75.8887 218.049 75.2715V72.3594C217.725 71.7617 217.227 71.4629 216.555 71.4629C216.023 71.4629 215.609 71.668 215.312 72.0781C215.016 72.4883 214.867 73.0957 214.867 73.9004Z" fill="#264F70"/>
<path d="M43.9316 9.20703L44.6348 9.21289C45.1504 9.21289 45.584 9.07812 45.9355 8.80859C46.291 8.53516 46.4941 8.16602 46.5449 7.70117C46.5957 7.24805 46.5117 6.89258 46.293 6.63477C46.0742 6.37305 45.7559 6.23828 45.3379 6.23047C44.8926 6.22266 44.5137 6.35352 44.2012 6.62305C43.8926 6.88867 43.7031 7.24805 43.6328 7.70117L42.584 7.70703C42.6504 7.00391 42.9492 6.43359 43.4805 5.99609C44.0156 5.55469 44.6523 5.33789 45.3906 5.3457C46.1055 5.36133 46.666 5.58594 47.0723 6.01953C47.4824 6.44922 47.6602 7.01758 47.6055 7.72461C47.5703 8.12695 47.416 8.49414 47.1426 8.82617C46.8691 9.1582 46.4902 9.43359 46.0059 9.65234C46.3926 9.80859 46.6816 10.0566 46.873 10.3965C47.0645 10.7324 47.1445 11.127 47.1133 11.5801C47.0508 12.3496 46.7441 12.9688 46.1934 13.4375C45.6465 13.9062 44.9805 14.1328 44.1953 14.1172C43.4648 14.1016 42.8828 13.875 42.4492 13.4375C42.0156 13 41.8145 12.4355 41.8457 11.7441L42.9062 11.75C42.8828 12.1875 42.9883 12.541 43.2227 12.8105C43.457 13.0762 43.7969 13.2168 44.2422 13.2324C44.7422 13.248 45.1582 13.1055 45.4902 12.8047C45.8223 12.5039 46.0117 12.1016 46.0586 11.5977C46.1016 11.1328 45.9961 10.7715 45.7422 10.5137C45.4883 10.252 45.1094 10.1133 44.6055 10.0977L43.791 10.0918L43.9316 9.20703ZM52.5195 10.8184C52.5977 10.1738 52.7754 9.5918 53.0527 9.07227C53.3301 8.55273 53.6719 8.16406 54.0781 7.90625C54.4844 7.64844 54.9316 7.52539 55.4199 7.53711C56.127 7.55273 56.6699 7.81055 57.0488 8.31055L57.6582 5H58.7188L57.1602 14H56.1934L56.3047 13.3203C55.8047 13.8672 55.1875 14.1328 54.4531 14.1172C53.8672 14.1016 53.4004 13.873 53.0527 13.4316C52.7051 12.9863 52.5176 12.3906 52.4902 11.6445C52.4785 11.4141 52.4883 11.1387 52.5195 10.8184ZM53.5391 11.4277C53.5273 11.9863 53.627 12.4199 53.8379 12.7285C54.0488 13.0371 54.3574 13.1953 54.7637 13.2031C55.377 13.2305 55.9219 12.9219 56.3984 12.2773L56.9023 9.34766C56.668 8.76953 56.2422 8.47266 55.625 8.45703C55.207 8.44531 54.8379 8.57227 54.5176 8.83789C54.2012 9.09961 53.959 9.46875 53.791 9.94531C53.627 10.418 53.543 10.9121 53.5391 11.4277ZM63.2148 14C63.1875 13.8867 63.1738 13.7754 63.1738 13.666L63.1914 13.332C62.6094 13.8711 61.9922 14.1328 61.3398 14.1172C60.7812 14.1094 60.3262 13.9336 59.9746 13.5898C59.627 13.2422 59.4688 12.8086 59.5 12.2891C59.5391 11.6172 59.832 11.0938 60.3789 10.7188C60.9297 10.3398 61.6523 10.1504 62.5469 10.1504L63.6543 10.1562L63.7246 9.65234C63.7637 9.27344 63.6895 8.97461 63.502 8.75586C63.3184 8.5332 63.041 8.41797 62.6699 8.41016C62.3066 8.40234 61.9844 8.49219 61.7031 8.67969C61.4258 8.86328 61.2559 9.10742 61.1934 9.41211L60.127 9.41797C60.1621 9.04688 60.3066 8.71875 60.5605 8.43359C60.8145 8.14453 61.1406 7.92188 61.5391 7.76562C61.9375 7.60547 62.3496 7.5293 62.7754 7.53711C63.4355 7.55273 63.9492 7.75391 64.3164 8.14062C64.6836 8.52344 64.8379 9.0332 64.7793 9.66992L64.2637 12.8105L64.2344 13.2617C64.2266 13.4766 64.25 13.6895 64.3047 13.9004L64.293 14H63.2148ZM61.5508 13.1797C61.8906 13.1875 62.2109 13.1074 62.5117 12.9395C62.8164 12.7676 63.0781 12.5312 63.2969 12.2305L63.5254 10.9238L62.7227 10.918C62.0547 10.918 61.543 11.0234 61.1875 11.2344C60.832 11.4453 60.6309 11.7441 60.584 12.1309C60.5488 12.4277 60.6172 12.6758 60.7891 12.875C60.9648 13.0703 61.2188 13.1719 61.5508 13.1797ZM68.4141 12.4004L70.6699 7.66016H71.8418L68.0801 15.0547C67.5566 16.082 66.8848 16.5898 66.0645 16.5781C65.9199 16.5742 65.707 16.5391 65.4258 16.4727L65.5195 15.5938L65.7949 15.623C66.1309 15.6387 66.4199 15.5625 66.6621 15.3945C66.9082 15.2305 67.125 14.9629 67.3125 14.5918L67.6934 13.8652L66.5977 7.66016H67.7051L68.4141 12.4004ZM79.5918 8.62695L79.0938 8.57422C78.4141 8.57422 77.8789 8.88086 77.4883 9.49414L76.709 14H75.6484L76.75 7.66016L77.7754 7.6543L77.6172 8.39258C78.0664 7.80273 78.5957 7.51562 79.2051 7.53125C79.334 7.53125 79.502 7.56055 79.709 7.61914L79.5918 8.62695ZM82.7695 14.1172C81.9805 14.1016 81.3633 13.8105 80.918 13.2441C80.4727 12.6777 80.2852 11.9531 80.3555 11.0703L80.3848 10.8184C80.4512 10.1895 80.6367 9.61523 80.9414 9.0957C81.25 8.57617 81.625 8.18555 82.0664 7.92383C82.5078 7.6582 82.9844 7.53125 83.4961 7.54297C84.1484 7.55859 84.6602 7.77539 85.0312 8.19336C85.4023 8.61133 85.6055 9.17773 85.6406 9.89258C85.6523 10.1465 85.6445 10.4004 85.6172 10.6543L85.5527 11.1406H81.4102C81.3398 11.7148 81.4336 12.2031 81.6914 12.6055C81.9531 13.0078 82.3418 13.2168 82.8574 13.2324C83.4824 13.248 84.0605 12.9668 84.5918 12.3887L85.2012 12.9043C84.9355 13.2871 84.5918 13.5879 84.1699 13.8066C83.752 14.0215 83.2852 14.125 82.7695 14.1172ZM83.4434 8.42773C83.0059 8.41602 82.623 8.56445 82.2949 8.87305C81.9707 9.18164 81.7129 9.64062 81.5215 10.25L84.6035 10.2559L84.627 10.1621C84.6895 9.66992 84.6094 9.26172 84.3867 8.9375C84.168 8.60938 83.8535 8.43945 83.4434 8.42773ZM87.2656 14L88.2266 8.49805H87.248L87.3945 7.66016H88.3672L88.4727 6.91016C88.5742 6.27344 88.8203 5.77539 89.2109 5.41602C89.6211 5.04102 90.1445 4.85742 90.7812 4.86523C90.9805 4.86523 91.2324 4.89844 91.5371 4.96484L91.4082 5.84961C91.2207 5.81055 91.0312 5.78711 90.8398 5.7793C90.4727 5.7793 90.1738 5.89453 89.9434 6.125C89.7168 6.35156 89.5762 6.6543 89.5215 7.0332L89.4277 7.66016H90.7402L90.5938 8.49805H89.2812L88.3262 14H87.2656ZM95.377 13.373C94.8809 13.8848 94.25 14.1328 93.4844 14.1172C92.8789 14.1016 92.4297 13.8848 92.1367 13.4668C91.8477 13.0488 91.7402 12.4785 91.8145 11.7559L92.4941 7.66016H93.5547L92.8691 11.7734C92.8496 11.9453 92.8457 12.1133 92.8574 12.2773C92.877 12.5586 92.9609 12.7793 93.1094 12.9395C93.2578 13.0996 93.4648 13.1855 93.7305 13.1973C94.4883 13.2207 95.0742 12.9141 95.4883 12.2773L96.2852 7.66016H97.3457L96.2441 14H95.2422L95.377 13.373ZM100.436 7.6543L100.283 8.45703C100.854 7.83203 101.502 7.52734 102.229 7.54297C102.826 7.55859 103.268 7.76562 103.553 8.16406C103.838 8.5625 103.943 9.12305 103.869 9.8457L103.178 14H102.117L102.814 9.82812C102.838 9.63672 102.84 9.45898 102.82 9.29492C102.754 8.74805 102.432 8.46875 101.854 8.45703C101.217 8.44531 100.658 8.78516 100.178 9.47656L99.3926 14H98.332L99.4336 7.66016L100.436 7.6543ZM105.617 10.8184C105.695 10.1738 105.873 9.5918 106.15 9.07227C106.428 8.55273 106.77 8.16406 107.176 7.90625C107.582 7.64844 108.029 7.52539 108.518 7.53711C109.225 7.55273 109.768 7.81055 110.146 8.31055L110.756 5H111.816L110.258 14H109.291L109.402 13.3203C108.902 13.8672 108.285 14.1328 107.551 14.1172C106.965 14.1016 106.498 13.873 106.15 13.4316C105.803 12.9863 105.615 12.3906 105.588 11.6445C105.576 11.4141 105.586 11.1387 105.617 10.8184ZM106.637 11.4277C106.625 11.9863 106.725 12.4199 106.936 12.7285C107.146 13.0371 107.455 13.1953 107.861 13.2031C108.475 13.2305 109.02 12.9219 109.496 12.2773L110 9.34766C109.766 8.76953 109.34 8.47266 108.723 8.45703C108.305 8.44531 107.936 8.57227 107.615 8.83789C107.299 9.09961 107.057 9.46875 106.889 9.94531C106.725 10.418 106.641 10.9121 106.637 11.4277ZM121.564 12.5L123.586 7.66016H124.682L121.793 14H120.932L120.275 9.20703L117.99 14H117.129L116.443 7.66016H117.457L117.844 12.3828L120.094 7.66016H120.949L121.564 12.5ZM126.336 14H125.281L126.383 7.66016H127.438L126.336 14ZM127.209 5.3457C127.389 5.33789 127.537 5.39258 127.654 5.50977C127.775 5.62305 127.836 5.77344 127.836 5.96094C127.832 6.14453 127.771 6.29492 127.654 6.41211C127.541 6.5293 127.393 6.5918 127.209 6.59961C127.025 6.60742 126.875 6.55469 126.758 6.44141C126.641 6.32812 126.584 6.17969 126.588 5.99609C126.592 5.8125 126.65 5.66016 126.764 5.53906C126.877 5.41797 127.025 5.35352 127.209 5.3457ZM130.674 7.6543L130.521 8.45703C131.092 7.83203 131.74 7.52734 132.467 7.54297C133.064 7.55859 133.506 7.76562 133.791 8.16406C134.076 8.5625 134.182 9.12305 134.107 9.8457L133.416 14H132.355L133.053 9.82812C133.076 9.63672 133.078 9.45898 133.059 9.29492C132.992 8.74805 132.67 8.46875 132.092 8.45703C131.455 8.44531 130.896 8.78516 130.416 9.47656L129.631 14H128.57L129.672 7.66016L130.674 7.6543ZM135.855 10.8184C135.934 10.1738 136.111 9.5918 136.389 9.07227C136.666 8.55273 137.008 8.16406 137.414 7.90625C137.82 7.64844 138.268 7.52539 138.756 7.53711C139.463 7.55273 140.006 7.81055 140.385 8.31055L140.994 5H142.055L140.496 14H139.529L139.641 13.3203C139.141 13.8672 138.523 14.1328 137.789 14.1172C137.203 14.1016 136.736 13.873 136.389 13.4316C136.041 12.9863 135.854 12.3906 135.826 11.6445C135.814 11.4141 135.824 11.1387 135.855 10.8184ZM136.875 11.4277C136.863 11.9863 136.963 12.4199 137.174 12.7285C137.385 13.0371 137.693 13.1953 138.1 13.2031C138.713 13.2305 139.258 12.9219 139.734 12.2773L140.238 9.34766C140.004 8.76953 139.578 8.47266 138.961 8.45703C138.543 8.44531 138.174 8.57227 137.854 8.83789C137.537 9.09961 137.295 9.46875 137.127 9.94531C136.963 10.418 136.879 10.9121 136.875 11.4277ZM146.193 7.54297C146.725 7.55078 147.18 7.69531 147.559 7.97656C147.938 8.25781 148.217 8.64648 148.396 9.14258C148.58 9.63477 148.643 10.1738 148.584 10.7598L148.572 10.8887C148.498 11.5059 148.314 12.0645 148.021 12.5645C147.729 13.0605 147.35 13.4473 146.885 13.7246C146.42 14.002 145.91 14.1328 145.355 14.1172C144.828 14.1094 144.373 13.9648 143.99 13.6836C143.611 13.4023 143.334 13.0195 143.158 12.5352C142.982 12.0508 142.92 11.5176 142.971 10.9355C143.029 10.2793 143.207 9.68945 143.504 9.16602C143.801 8.64258 144.182 8.23828 144.646 7.95312C145.115 7.66406 145.631 7.52734 146.193 7.54297ZM144.037 10.9414C144.01 11.1875 144.01 11.4434 144.037 11.709C144.076 12.1699 144.213 12.5371 144.447 12.8105C144.686 13.084 145.002 13.2266 145.396 13.2383C145.748 13.25 146.072 13.1641 146.369 12.9805C146.666 12.793 146.916 12.5117 147.119 12.1367C147.322 11.7617 147.453 11.3457 147.512 10.8887C147.543 10.5293 147.549 10.2266 147.529 9.98047C147.482 9.50781 147.34 9.13477 147.102 8.86133C146.863 8.58789 146.547 8.44336 146.152 8.42773C145.605 8.41602 145.141 8.63086 144.758 9.07227C144.375 9.51367 144.139 10.0918 144.049 10.8066L144.037 10.9414ZM155.564 12.5L157.586 7.66016H158.682L155.793 14H154.932L154.275 9.20703L151.99 14H151.129L150.443 7.66016H151.457L151.844 12.3828L154.094 7.66016H154.949L155.564 12.5Z" fill="#264F70"/>
<path d="M188.227 31.1348H189.375L189.217 32.0195H188.074L187.729 34H186.662L187.008 32.0195H183.234L183.357 31.3223L188.045 25.4688H189.205L188.227 31.1348ZM184.629 31.1348H187.16L187.922 26.9395L187.752 27.1855L184.629 31.1348ZM194.23 30.8184C194.309 30.1738 194.486 29.5918 194.764 29.0723C195.041 28.5527 195.383 28.1641 195.789 27.9062C196.195 27.6484 196.643 27.5254 197.131 27.5371C197.838 27.5527 198.381 27.8105 198.76 28.3105L199.369 25H200.43L198.871 34H197.904L198.016 33.3203C197.516 33.8672 196.898 34.1328 196.164 34.1172C195.578 34.1016 195.111 33.873 194.764 33.4316C194.416 32.9863 194.229 32.3906 194.201 31.6445C194.189 31.4141 194.199 31.1387 194.23 30.8184ZM195.25 31.4277C195.238 31.9863 195.338 32.4199 195.549 32.7285C195.76 33.0371 196.068 33.1953 196.475 33.2031C197.088 33.2305 197.633 32.9219 198.109 32.2773L198.613 29.3477C198.379 28.7695 197.953 28.4727 197.336 28.457C196.918 28.4453 196.549 28.5723 196.229 28.8379C195.912 29.0996 195.67 29.4688 195.502 29.9453C195.338 30.418 195.254 30.9121 195.25 31.4277ZM204.926 34C204.898 33.8867 204.885 33.7754 204.885 33.666L204.902 33.332C204.32 33.8711 203.703 34.1328 203.051 34.1172C202.492 34.1094 202.037 33.9336 201.686 33.5898C201.338 33.2422 201.18 32.8086 201.211 32.2891C201.25 31.6172 201.543 31.0938 202.09 30.7188C202.641 30.3398 203.363 30.1504 204.258 30.1504L205.365 30.1562L205.436 29.6523C205.475 29.2734 205.4 28.9746 205.213 28.7559C205.029 28.5332 204.752 28.418 204.381 28.4102C204.018 28.4023 203.695 28.4922 203.414 28.6797C203.137 28.8633 202.967 29.1074 202.904 29.4121L201.838 29.418C201.873 29.0469 202.018 28.7188 202.271 28.4336C202.525 28.1445 202.852 27.9219 203.25 27.7656C203.648 27.6055 204.061 27.5293 204.486 27.5371C205.146 27.5527 205.66 27.7539 206.027 28.1406C206.395 28.5234 206.549 29.0332 206.49 29.6699L205.975 32.8105L205.945 33.2617C205.938 33.4766 205.961 33.6895 206.016 33.9004L206.004 34H204.926ZM203.262 33.1797C203.602 33.1875 203.922 33.1074 204.223 32.9395C204.527 32.7676 204.789 32.5312 205.008 32.2305L205.236 30.9238L204.434 30.918C203.766 30.918 203.254 31.0234 202.898 31.2344C202.543 31.4453 202.342 31.7441 202.295 32.1309C202.26 32.4277 202.328 32.6758 202.5 32.875C202.676 33.0703 202.93 33.1719 203.262 33.1797ZM210.125 32.4004L212.381 27.6602H213.553L209.791 35.0547C209.268 36.082 208.596 36.5898 207.775 36.5781C207.631 36.5742 207.418 36.5391 207.137 36.4727L207.23 35.5938L207.506 35.623C207.842 35.6387 208.131 35.5625 208.373 35.3945C208.619 35.2305 208.836 34.9629 209.023 34.5918L209.404 33.8652L208.309 27.6602H209.416L210.125 32.4004ZM217.844 32.2832C217.902 31.8457 217.662 31.5371 217.123 31.3574L216.021 31.0352C215.092 30.7148 214.643 30.1836 214.674 29.4414C214.701 28.8828 214.955 28.4258 215.436 28.0703C215.92 27.7109 216.488 27.5352 217.141 27.543C217.781 27.5508 218.301 27.7383 218.699 28.1055C219.102 28.4688 219.295 28.9434 219.279 29.5293L218.225 29.5234C218.232 29.207 218.133 28.9492 217.926 28.75C217.719 28.5508 217.443 28.4473 217.1 28.4395C216.732 28.4316 216.416 28.5215 216.15 28.709C215.904 28.8848 215.762 29.1152 215.723 29.4004C215.672 29.7676 215.896 30.0352 216.396 30.2031L216.93 30.3496C217.656 30.5371 218.172 30.7812 218.477 31.082C218.781 31.3828 218.922 31.7559 218.898 32.2012C218.875 32.5957 218.746 32.9395 218.512 33.2324C218.277 33.5254 217.965 33.75 217.574 33.9062C217.184 34.0586 216.768 34.1289 216.326 34.1172C215.654 34.1094 215.1 33.9141 214.662 33.5312C214.225 33.1445 214.014 32.6484 214.029 32.043L215.09 32.0488C215.09 32.4043 215.203 32.6895 215.43 32.9043C215.656 33.1191 215.967 33.2266 216.361 33.2266C216.748 33.2344 217.082 33.1543 217.363 32.9863C217.645 32.8145 217.805 32.5801 217.844 32.2832Z" fill="#264F70"/>
<path d="M29 31.4907C31.3062 28.7742 35.0653 26.7368 40.2772 25.3786C45.4892 24.0374 52.3616 23.3667 60.8945 23.3667L77.5682 23.3667C90.5751 23.3667 97.0785 21.2445 97.0785 17H101.645C101.645 21.2445 108.102 23.3667 121.017 23.3667H138.105C146.638 23.3837 153.511 24.0628 158.723 25.4041C163.935 26.7623 167.694 28.7912 170 31.4907L166.887 31.8727C162.689 27.1188 152.842 24.7419 137.344 24.7419H121.57C109.025 24.7419 101.622 22.9508 99.3616 19.3684C96.9171 22.9508 89.5142 24.7419 77.1531 24.7419L61.3096 24.7419C46.3194 24.7419 36.6104 27.1613 32.1825 32L29 31.4907Z" fill="#264F70"/>
<line x1="29.5" y1="37" x2="29.5" y2="49" stroke="#264F70"/>
</svg>
